<?xml version="1.0" encoding="utf-8"?>
<!-- Generator: Adobe Illustrator 24.0.0, SVG Export Plug-In . SVG Version: 6.00 Build 0)  -->
<svg version="1.1" id="Layer_1" xmlns="http://www.w3.org/2000/svg" xmlns:xlink="http://www.w3.org/1999/xlink" x="0px" y="0px"
	 viewBox="0 0 418.3 117.7" style="enable-background:new 0 0 418.3 117.7;" xml:space="preserve">
<style type="text/css">
	.st0{fill:#FFFFFF;}
</style>
<g>
	<path class="st0" d="M54.5,38c0.9-1.4,2-1.6,2.8-1.6c0.8,0,2.2,0.2,3.2,1.6c7.4,10.2,19.7,30.4,28.7,45.4
		c5.9,9.8,10.4,17.3,11.3,18.2c3.5,3.6,8.3,1.4,11-2.7c2.7-4,3.5-6.8,3.5-9.8c0-2-39.6-75.6-43.6-81.7C67.7,1.5,66.4,0,59.8,0h-4.9
		c-6.5,0-7.5,1.5-11.3,7.4C39.6,13.4,0,87.1,0,89.1c0,3,0.7,5.8,3.5,9.8c2.8,4.1,7.5,6.3,11,2.7c0.9-0.9,5.4-8.5,11.3-18.2
		C34.9,68.4,47.1,48.2,54.5,38z"/>
	<path class="st0" d="M316.9,32.2c16.3,0,29.2,14.7,29.2,32.9s-13,33-29.2,33c-8.7,0-15.5-3.6-19.9-10.2l0,0v29.8h-18.1V33.4H297
		v8.9C301.3,35.8,308.1,32.2,316.9,32.2z M385.6,32.2c18.5,0,32.7,14.2,32.7,33c0,18.8-14.2,32.9-32.7,32.9
		c-18.6,0-32.7-14.1-32.7-32.9C352.8,46.3,367,32.2,385.6,32.2z M197.5,6.5v18.3h-36.1V41h32.1v18.3h-32.1v19.1h36.1v18.3h-55V6.5
		H197.5z M226.9,33.4l10.4,15l10.5-15h21.5L248.1,64L271,96.8h-21.8l-11.9-17.2l-11.9,17.2h-21.5l22.7-32.6l-21.3-30.7L226.9,33.4
		L226.9,33.4z M312.8,49.4C304,49.4,297,56.3,297,65c0,8.9,7,15.6,15.8,15.6c8.7,0,15.8-6.8,15.8-15.6
		C328.5,56.4,321.5,49.4,312.8,49.4z M385.6,49.6c-8.6,0-15,6.6-15,15.6c0,8.8,6.4,15.5,15,15.5c8.5,0,15-6.7,15-15.5
		C400.6,56.2,394,49.6,385.6,49.6z"/>
</g>
</svg>
