<?xml version="1.0" encoding="utf-8"?>
<!-- Generator: Adobe Illustrator 24.0.0, SVG Export Plug-In . SVG Version: 6.00 Build 0)  -->
<svg version="1.1" id="Layer_1" xmlns="http://www.w3.org/2000/svg" xmlns:xlink="http://www.w3.org/1999/xlink" x="0px" y="0px"
	 viewBox="0 0 357.5 82.1" style="enable-background:new 0 0 357.5 82.1;" xml:space="preserve">
<style type="text/css">
	.st0{fill:#FFFFFF;}
</style>
<g>
	<path class="st0" d="M136.1,0.2c-0.1,0-0.1,0-0.2,0c-7.5,0-14.6,3.9-18.7,10.1V1.6H110v80.6h7.6V54.6c3.8,4.4,9.2,7.2,15.2,7.8
		c12.1,1.9,23.2-3.5,27.6-13.4c5.5-11.5,5.2-25-0.9-36.1C154.8,4.3,146.7-0.1,136.1,0.2z M134.7,7.2l0.1,0
		c7.9-1.1,15.6,3.2,18.9,10.5c4,8.3,4.3,18,0.7,26.5l0,0.1c-3.1,8.1-11.5,13-20.2,11.6c-9-1-14.6-6.7-16.1-16.4
		c-0.3-1.7-0.4-3.6-0.6-5.7c-0.1-1-0.2-2-0.3-3.1c0.5-3.5,1.1-7.1,2-10.5C121.1,12.9,127.4,7.7,134.7,7.2z"/>
	<path class="st0" d="M251.4,32.1c-0.4-4.4-1.1-8.8-2-13.1c-2.5-10.2-11.2-17.7-21.6-18.6c-11-1.6-21.7,4.2-26.5,14.2
		c-3.3,7-4.5,14.7-3.6,22.3c1.2,12.6,9,25.8,26.8,25.8c0.6,0,1.3,0,1.9,0c12.1-0.2,22.2-9.4,23.6-21.4l0.1-1.2l-1.2-0.4
		c-1.3-0.4-2.9-0.8-4.4,0c-1.1,0.6-1.9,1.7-2.3,3.4c-3.3,10.1-12.5,14.9-23.4,12.2c-8.6-2.2-14.2-10.9-14-21.5h46.6L251.4,32.1z
		 M205.2,26.8c1.1-12,9.1-19.8,20.4-19.7h0c9.7,0.1,17.1,8.3,17.9,19.7H205.2z"/>
	<path class="st0" d="M294.1,30.4c-2.2-0.8-4.6-1.3-6.8-1.8c-1.4-0.3-2.8-0.7-4.2-1c-1.3-0.4-2.6-0.7-3.9-1
		c-3.2-0.8-6.4-1.7-9.5-2.8c-2.8-1-4.7-3.7-4.7-6.7l0-0.1c-0.3-3,1.4-5.8,4.2-7.1c2.5-1.3,5.3-2.1,8.1-2.5
		c6.1-0.6,11.2,0.6,14.3,3.3c2.4,2.1,3.7,5.1,3.8,8.8c0,0.4,0.2,0.7,0.3,1v1h6.3l0.2-1.3c1-6.6-2.3-13.3-8.2-16.6
		c-9.3-4.9-20.3-4.7-29.4,0.4c-4.4,2.3-7,7.3-6.9,12.9c0.1,5.3,2.6,9.8,6.5,11.7c4.5,2,9.3,3.8,14,5.1c2,0.6,4,1.2,5.9,1.7
		c2.6,0.7,5.3,1.4,7.8,2.4c3.1,1.1,5.1,4.1,4.9,7.4l0,0.1l0,0.1c0.2,3.4-1.7,6.7-4.9,8.2c-6.4,3.3-13.8,3.5-20.4,0.5
		c-5.1-2.3-8.4-7.2-8.7-12.7l-0.1-1.4h-7l0,1.5c0,5.5,2.1,10.8,6,14.7c4.4,4.3,12,6.6,19.5,6.6c5.3,0,10.5-1.1,14.6-3.4
		c5.9-3,9.2-9.3,8.2-15.8C303.7,37.4,299.7,32.2,294.1,30.4z"/>
	<path class="st0" d="M347.1,30.4c-1.9-0.7-3.8-1.3-5.7-1.7c-2.5-0.7-5-1.3-7.5-1.9c-3.3-0.8-6.7-1.6-10-2.6c-3.4-0.8-5.8-4-5.7-7.6
		c0-3.6,2.5-6.9,6-7.9l0.1,0c4.8-1.9,10.2-2.1,15.1-0.7l0.1,0c5.1,1,8.8,5.4,8.9,10.5l0,0.2c0,0.2,0.1,0.5,0.1,0.7
		c0.1,0.2,0.1,0.4,0.1,0.5v1.5h6.6l0.2-1.3c0.8-6.5-2.3-12.8-8-16.2c-9.3-5.1-20.7-5-29.9,0.3c-4.3,2.3-6.9,7.2-6.7,12.8
		c0.1,5.3,2.5,9.8,6.4,11.7c4.6,2,9.3,3.7,14.1,5.1c2,0.6,4,1.2,5.9,1.7c2.6,0.7,5.3,1.4,7.8,2.3c3.1,1,5.2,4,5,7.3l0,0.1l0,0.1
		c0.2,3.4-1.7,6.6-4.7,8.2l-0.1,0.1c-2,1.3-4.2,2.2-6.6,2.7c-5.1,1.1-10.2,0.1-14.6-2.8s-7.3-7.2-8.3-12.3l-0.2-1.2h-6.4l-0.1,1.4
		c-0.4,8.1,4.3,15.6,11.7,18.8c4.2,1.8,8.7,2.7,13.2,2.7c4.7,0,9.4-1,13.8-3c4.1-1.7,7.2-5.1,8.7-9.2
		C359.6,42.4,355.3,33.3,347.1,30.4z"/>
	<path class="st0" d="M85.1,31.3L84.9,31c0,0-0.1-0.1-0.1-0.1c-0.5-0.6-0.5-1.4,0.1-1.9l0.2-0.2c3-3.7,5.9-7.5,8.7-11.3l11.3-15
		l-1.8-0.7c-3.6-1.4-7.7,0.1-9.5,3.5c-3.6,5.1-7.3,9.9-11.2,15.1c-1,1.3-2,2.6-2.9,3.9c-1.2-1.6-2.4-3.2-3.6-4.8
		c-3.7-4.9-7.2-9.5-10.4-14.2c-2.1-3.4-6.2-4.8-10-3.5l-1.9,0.7L74.8,30L52.1,60.4l1.9,0.7c3.6,1.3,7.7-0.3,9.5-3.7
		c4-5.9,8.3-11.5,12.8-17.5c1-1.4,2.1-2.8,3.1-4.2l0.9,1.2c1.5,2,3,4.1,4.5,6.1c3.4,4.6,7,9.4,10.2,14.3c1.4,2.7,4.2,4.2,7.1,4.2
		c1,0,1.9-0.2,2.8-0.5l1.9-0.7l-6.9-9.3C95,44.4,90.1,37.8,85.1,31.3z"/>
	<path class="st0" d="M200,8.4V1.3l-1.5,0c-9.1,0.2-15.9,3.1-20.7,8.7V1.6h-7v59.7h7.1l0-33.1c0-0.6,0-1.3,0-1.9
		c0.7-10.6,9.9-18.7,20.5-18L200,8.4z"/>
	<path class="st0" d="M53.3,40l-1.2-0.4c-2.3-0.7-5.5-1.1-6.9,3.6c-1.3,5.2-5,9.5-10.1,11.3c-7.3,2.4-14.1,1.7-19.2-2.2
		c-5.1-3.9-8-10.6-8.1-18.5h45.8l0.1-1.4c0.5-12.4-2.8-21-10.3-26.9h0c-6.8-5.3-15.4-6.8-23.5-4.2c-8.6,2.8-15.3,9.9-17.9,19
		c-0.6,2-0.9,4-1.3,5.9c-0.2,1.1-0.4,2.1-0.6,3.1l0,0.3c0,1.6,0,3.3,0,5l0,0.3c0.1,0.3,0.1,0.6,0.2,0.9c0.2,0.6,0.3,1.2,0.3,1.6
		l0,0.1C1.1,44,3.7,50.2,8,55l0.1,0.1c5.4,5.1,12.4,7.7,19.4,7.7c4.7,0,9.4-1.2,13.7-3.5c6.5-3.9,10.9-10.5,11.8-18.1L53.3,40z
		 M7.9,26.9C9,15,16.8,7.2,27.7,7.2c0.1,0,0.2,0,0.3,0c9.9,0.1,17.3,8.3,18.1,19.7H7.9z"/>
</g>
</svg>
