<?xml version="1.0" encoding="utf-8"?>
<!-- Generator: Adobe Illustrator 24.0.0, SVG Export Plug-In . SVG Version: 6.00 Build 0)  -->
<svg version="1.1" id="Layer_1" xmlns="http://www.w3.org/2000/svg" xmlns:xlink="http://www.w3.org/1999/xlink" x="0px" y="0px"
	 viewBox="0 0 805.2 220.1" style="enable-background:new 0 0 805.2 220.1;" xml:space="preserve">
<style type="text/css">
	.st0{fill:#FFFFFF;}
</style>
<path class="st0" d="M0,72.2h72.2l74,73.9h-74v73.9L0,146.2V72.2z M0,0h146.3v72.2h-74L0,0z"/>
<polygon class="st0" points="284.1,156.2 284.1,47.1 351.4,47.1 351.4,68.9 309.3,68.9 309.3,97.5 351.4,97.5 351.4,119.3 
	309.3,119.3 309.3,156.2 "/>
<path class="st0" d="M366.5,156.2V80.6h25.2v16.9c0-5,3.4-10.2,6.7-13.5c5-3.4,8.5-5,13.5-5c3.4,0,5,1.7,6.7,1.7v21.9h-6.7
	c-6.7,0-11.8,1.7-15.2,6.7c-3.4,3.4-5,10.1-5,18.5v28.5H366.5z"/>
<path class="st0" d="M465.7,139.5c6.7,0,10.1-1.7,13.4-6.7c3.4-3.4,5-8.4,5-13.4c0-6.7-1.7-10.1-5-15.1c-3.4-3.4-6.7-5-13.4-5
	c-5,0-10.2,1.7-13.5,5c-3.4,5-5,8.4-5,15.1c0,5,1.7,10.1,5,13.4C455.5,137.8,460.6,139.5,465.7,139.5 M459,159.6
	c-11.8,0-20.2-5-26.9-11.7c-5-6.7-8.4-16.8-8.4-28.5c0-8.4,1.7-15.1,3.4-20.1c3.4-6.7,8.4-11.8,13.4-15.2c5-3.4,11.7-5,18.6-5
	c5,0,10.1,1.7,15.1,3.4c3.4,1.7,6.7,5,8.4,10.2V80.6h25.2v75.6h-25.2v-10.1c-1.7,3.4-5,6.7-8.4,10.1C469,157.9,464,159.6,459,159.6"
	/>
<path class="st0" d="M526.2,156.2V80.6h23.5v11.8c1.7-5.1,5-6.8,8.4-10.2c5.1-1.7,8.5-3.4,13.5-3.4c11.7,0,20.1,5,23.5,13.5
	c3.4-3.5,6.7-6.8,10.1-10.2c5-1.7,10.2-3.4,15.2-3.4c18.5,0,26.8,10.1,26.8,30.3v47h-23.5v-41.9c0-5-1.7-8.4-3.4-11.7
	c-1.7-1.7-5-3.4-8.5-3.4c-5,0-8.4,1.7-10.1,5c-1.7,1.7-3.4,6.7-3.4,13.4v38.6h-23.5v-41.9c0-5-1.7-8.4-3.4-11.7
	c-1.7-1.7-5-3.4-8.4-3.4c-3.5,0-6.8,1.7-10.2,5c-1.7,1.7-3.4,6.7-3.4,13.4v38.6H526.2z"/>
<path class="st0" d="M684.2,110.9h31.9c0-5-1.7-8.4-3.3-11.7c-3.4-3.4-6.7-3.4-11.7-3.4c-5,0-10.1,1.7-13.4,3.4
	C685.9,102.6,684.2,105.9,684.2,110.9 M739.7,114.3V126h-55.5c0,5,1.7,8.4,5,11.7c1.7,1.7,6.7,3.4,11.7,3.4c8.4,0,11.7-1.7,15.1-6.7
	h23.6c-1.7,6.7-5,13.4-13.4,18.5c-6.7,3.4-15.2,6.7-25.3,6.7c-13.4,0-23.5-3.4-30.2-11.7c-6.8-6.7-11.8-16.8-11.8-28.5
	c0-13.4,5-21.8,11.8-30.3C677.5,82.3,687.6,79,701,79c11.7,0,20.2,3.4,28.6,10.1C736.3,95.8,739.7,104.2,739.7,114.3"/>
<path class="st0" d="M753.1,156.2V80.6h23.6v16.9c1.7-5,5-10.2,8.4-13.5c3.4-3.4,8.4-5,13.4-5c1.7,0,5,1.7,6.7,1.7v21.9h-8.4
	c-5,0-10.1,1.7-13.4,6.7c-5,3.4-6.7,10.1-6.7,18.5v28.5H753.1z"/>
</svg>
