<?xml version="1.0" encoding="utf-8"?>
<!-- Generator: Adobe Illustrator 24.0.0, SVG Export Plug-In . SVG Version: 6.00 Build 0)  -->
<svg version="1.1" id="Layer_1" xmlns="http://www.w3.org/2000/svg" xmlns:xlink="http://www.w3.org/1999/xlink" x="0px" y="0px"
	 viewBox="0 0 296.8 69.5" style="enable-background:new 0 0 296.8 69.5;" xml:space="preserve">
<style type="text/css">
	.st0{fill:#FFFFFF;}
</style>
<g>
	<path class="st0" d="M229.8,0c0,21.1,0,42.3,0.1,63.4c0,4.5-1.5,6.3-6.1,6c-4.5-0.3-9-0.2-13.5,0c-3.8,0.2-5-1.5-4.9-5
		c0.2-7,0.1-14,0-21c0-1.6-0.1-3.2-0.3-6.1c-4.7,7.2-8.7,13.2-12.6,19.4c-1.9,3-3.3,3.3-5.2,0.1c-3.6-5.9-7.5-11.6-11.3-17.4
		c-0.5,0.1-0.9,0.2-1.4,0.3c0,6.5,0,13.1,0,19.6c0,12.3,0.1,10.1-10.1,10.2c-13.9,0.1-14,0-13.9-13.9c0-18.5,0.1-37,0.2-55.4
		c8.3,0,16.6,0,25,0c4.1,6.6,8.3,13.3,12.4,19.9c1.1,1.9,2.2,3.1,3.8,0.3c3.8-6.8,8.6-13.1,11.8-20.3C212.5,0,221.1,0,229.8,0z"/>
	<path class="st0" d="M68.1,0c0.1,21.6,0.1,43.3,0.2,64.9c0,3.1-1.2,4.6-4.4,4.5c-5.1-0.1-10.3-0.1-15.4,0C45.2,69.5,44,68,44,64.9
		c0.1-4.8-0.1-9.7,0-14.5c0.1-3-1.2-4.2-4.2-4.1c-3.8,0.1-7.6,0.1-11.5,0c-3.1-0.1-4,1.4-4,4.3c0.1,4.7-0.1,9.3,0,14
		c0.1,3.3-1,4.9-4.6,4.8c-5.1-0.2-10.3-0.1-15.4,0C1.2,69.5,0,68,0,64.9C0.1,43.3,0.2,21.6,0.2,0c8,0,16,0,24,0c0,2.7,0.1,5.3,0.1,8
		c0.4,16.5-3.3,13.7,15.3,14c3.2,0,4.4-1.4,4.4-4.5C44,11.6,44.1,5.8,44.2,0C52.1,0,60.1,0,68.1,0z"/>
	<path class="st0" d="M142,0c0,6.3,0,12.6,0.1,19c0,3.1-1.3,4.5-4.5,4.4c-3.8-0.1-7.7,0.2-11.5-0.1c-3.8-0.2-4.9,1.3-4.8,4.9
		c0.2,11.8-0.1,23.6,0.1,35.4c0.1,4.3-1.2,6.1-5.6,5.7c-4.3-0.3-8.6-0.3-12.9,0c-3.9,0.2-5.3-1.2-5.2-5.1c0.2-11.5-0.2-23,0.2-34.4
		c0.1-4.9-1.1-6.7-6.3-6.6C77,23.5,77,23.3,77,8.5c0-2.8,0-5.7,0.1-8.5C98.7,0,120.3,0,142,0z"/>
	<path class="st0" d="M263.7,0c0.1,13.3,0.4,26.6,0.2,39.9c-0.1,4.7,1.5,6.1,6,5.9c7.1-0.3,14.3,0.1,21.4-0.1
		c3.8-0.1,5.6,1.1,5.4,5.1c-0.2,4.8-0.1,9.6-0.1,14.5c0,2.9-1.2,4.2-4.2,4.2c-16.1-0.1-32.2-0.1-48.3,0c-4.2,0-4.5-2.4-4.5-5.5
		c0-21.3,0.1-42.6,0.1-63.9C247.8,0,255.7,0,263.7,0z"/>
</g>
</svg>
