<?xml version="1.0" encoding="utf-8"?>
<!-- Generator: Adobe Illustrator 24.0.0, SVG Export Plug-In . SVG Version: 6.00 Build 0)  -->
<svg version="1.1" id="Layer_1" xmlns="http://www.w3.org/2000/svg" xmlns:xlink="http://www.w3.org/1999/xlink" x="0px" y="0px"
	 viewBox="0 0 382.2 89.4" style="enable-background:new 0 0 382.2 89.4;" xml:space="preserve">
<style type="text/css">
	.st0{fill:#FFFFFF;}
</style>
<g>
	<path class="st0" d="M7.6,7.8h3.8c1.1,0,2.3,0.3,3.4,0.9c0.4,0.3,0.8,0.5,1,0.8c0.2,0.2,0.3,0.4,0.4,0.8c0.1,0.5,0.2,1.1,0.3,1.9
		c0,0.9,0.1,2.1,0.1,3.5v43.1c0,3-0.5,4.1-0.8,4.5c-0.2,0.3-0.7,0.9-1.1,0.9c-0.6,0-1.1-0.9-1.4-1.6c-0.6-1.5-1.2-2.7-1.7-3.6
		c-0.6-1-1.1-1.7-1.7-2.2c-0.6-0.6-1.3-1-2-1.1c-0.5-0.1-1.1-0.2-1.7-0.2c-1.4,0-2.8,0.5-4.1,1.4c-1.4,1-2.1,2.7-2.1,5
		c0,1.2,0.3,2.3,0.8,3.4c0.5,1,1.3,2,2.2,2.7c0.9,0.8,2.1,1.4,3.4,1.9c1.3,0.4,2.8,0.7,4.4,0.7c2,0,3.9-0.3,5.6-1
		c1.7-0.7,3.2-1.6,4.6-2.7c1.4-1.1,2.5-2.4,3.5-3.8c1-1.4,1.7-2.9,2.3-4.5c1.1-3,1.7-7.1,1.7-12.1V15.7c0-5,0.7-6,0.8-6.2
		c0.9-1.1,2.3-1.7,4.4-1.7h3.8V3.1h-30V7.8z"/>
	<path class="st0" d="M74.5,60.7C74.2,60.9,74,61,74,61c-0.2,0.1-0.5,0.1-0.7,0c0,0,0-0.1-0.1-0.2c-0.1-0.3-0.2-1-0.3-2.5
		c-0.1-1.3-0.1-3.2-0.1-5.6V38.4c0-4.4-0.3-7.2-1-8.8c-1.2-2.7-3.1-4.7-5.7-5.8c-2.5-1-5.5-1.6-8.9-1.6c-2.6,0-5,0.3-7.1,1
		c-2.1,0.7-3.9,1.6-5.3,2.7c-1.5,1.1-2.7,2.5-3.5,3.9c-0.8,1.5-1.2,3-1.2,4.6c0,1.8,0.5,3.2,1.5,4.3c1,1.1,2.4,1.7,4,1.7
		c1.6,0,3-0.5,4-1.6c1-1,1.5-2.5,1.5-4.4l-0.1-2.6c0-0.9,0.4-1.7,1.2-2.5c0.9-0.8,2.1-1.2,3.7-1.2c1.1,0,2,0.1,2.8,0.4
		c0.7,0.3,1.3,0.7,1.8,1.3c0.5,0.7,1,1.6,1.3,2.8c0.3,1.3,0.5,3,0.5,5v0.6c-4.2,1.6-8.2,3.2-11.9,4.9c-2.7,1.1-4.9,2.4-6.6,3.7
		c-1.8,1.4-3.1,3-3.9,4.7c-0.9,1.7-1.3,3.7-1.3,5.9c0,1.8,0.3,3.5,0.9,5c0.6,1.5,1.4,2.8,2.4,3.9c1,1.1,2.3,2,3.7,2.6
		c1.4,0.6,3,0.9,4.7,0.9c2.1,0,4.1-0.4,5.9-1.3c0.4-0.2,1.2-0.6,3.2-2c0.9-0.6,2-1.4,3.2-2.4c0.3,1.5,0.8,2.7,1.5,3.5
		c1.2,1.4,2.8,2.1,4.7,2.1c3.7,0,7.3-2.5,11.1-7.5l0.3-0.4v-6.8l-4.5,4.5C75.2,60.1,74.8,60.5,74.5,60.7z M50.9,59.9
		c-0.5-0.6-0.9-1.2-1.2-2c-0.3-0.8-0.5-1.6-0.5-2.5c0-1.5,0.4-2.8,1.1-4c0.7-1.2,1.7-2.1,2.9-2.7c3.3-1.6,6.2-3,8.9-4.1v13.3
		c-4.1,3.2-6.5,3.9-7.8,3.9c-0.7,0-1.3-0.1-1.9-0.4C51.9,60.8,51.4,60.4,50.9,59.9z"/>
	<path class="st0" d="M110.1,28.2h1.5c2,0,2.9,0.2,3.2,0.3c0.1,0,0.2,0.1,0.2,0.4c0,0.5-0.2,1.5-0.9,3.4l-8.6,21L97,33.3
		c-0.7-1.7-0.9-2.7-0.8-3.3c0-0.8,0.3-1.1,0.5-1.3c0.3-0.3,0.9-0.5,1.7-0.5h2.8v-4.7h-23v4.6l1.3,0.2c1,0.1,1.8,0.3,2.5,0.5
		c0.6,0.2,1.1,0.5,1.5,0.8c0.4,0.3,0.8,0.8,1.1,1.4c0.4,0.7,0.8,1.6,1.2,2.6l15.6,36.8h3.9l15.5-37.5c0.4-0.9,0.7-1.6,1-2.3
		c0.2-0.5,0.5-0.9,0.9-1.3c0.3-0.3,0.7-0.6,1.1-0.7c0.5-0.2,1.1-0.3,2-0.4l1.4-0.1v-4.6h-16.9V28.2z"/>
	<path class="st0" d="M164.3,60.7c-0.3,0.3-0.5,0.3-0.5,0.3c-0.2,0.1-0.5,0.1-0.7,0c0,0,0-0.1-0.1-0.2c-0.1-0.3-0.2-1-0.3-2.5
		c-0.1-1.3-0.1-3.2-0.1-5.6V38.4c0-4.4-0.3-7.2-1-8.8c-1.2-2.7-3.1-4.7-5.7-5.8c-2.5-1-5.5-1.6-8.9-1.6c-2.6,0-5,0.3-7.1,1
		c-2.1,0.7-3.9,1.6-5.3,2.7c-1.5,1.1-2.7,2.5-3.5,3.9c-0.8,1.5-1.2,3-1.2,4.6c0,1.8,0.5,3.2,1.5,4.3c1,1.1,2.4,1.7,4,1.7
		c1.6,0,3-0.5,4-1.6c1-1,1.5-2.5,1.5-4.4l-0.1-2.6c0-0.9,0.4-1.7,1.2-2.5c0.9-0.8,2.1-1.2,3.7-1.2c1.1,0,2,0.1,2.8,0.4
		c0.7,0.3,1.3,0.7,1.8,1.3c0.5,0.7,1,1.6,1.3,2.8c0.3,1.3,0.5,3,0.5,5v0.6c-4.2,1.6-8.2,3.2-11.9,4.9c-2.7,1.1-4.9,2.4-6.6,3.7
		c-1.8,1.4-3.1,3-3.9,4.7c-0.9,1.7-1.3,3.7-1.3,5.9c0,1.8,0.3,3.5,0.9,5c0.6,1.5,1.4,2.8,2.4,3.9c1,1.1,2.3,2,3.7,2.6
		c1.4,0.6,3,0.9,4.7,0.9c2.1,0,4.1-0.4,5.9-1.3c0.4-0.2,1.2-0.6,3.2-2c0.9-0.6,2-1.4,3.2-2.4c0.3,1.5,0.8,2.7,1.5,3.5
		c1.2,1.4,2.8,2.1,4.7,2.1c3.7,0,7.3-2.5,11.1-7.5l0.3-0.4v-6.8l-4.5,4.5C165,60.1,164.6,60.5,164.3,60.7z M140.7,59.9
		c-0.5-0.6-0.9-1.2-1.2-2c-0.3-0.8-0.5-1.6-0.5-2.5c0-1.5,0.4-2.8,1.1-4c0.7-1.2,1.7-2.1,2.9-2.7c3.3-1.6,6.2-3,8.9-4.1v13.3
		c-4.1,3.2-6.5,3.9-7.8,3.9c-0.7,0-1.3-0.1-1.9-0.4C141.7,60.8,141.1,60.4,140.7,59.9z"/>
	<path class="st0" d="M193.5,42.5l-6.8-3.3c-1.4-0.7-2.6-1.4-3.5-2c-0.8-0.6-1.5-1.1-2-1.7c-0.4-0.5-0.7-1-0.8-1.5
		c-0.2-0.6-0.3-1.3-0.3-2c0-0.4,0.1-0.9,0.3-1.3c0.3-0.5,0.6-0.9,1.1-1.3c0.5-0.4,1.2-0.8,1.9-1c0.7-0.3,1.5-0.4,2.5-0.4
		c1.2,0,2.4,0.2,3.4,0.5c1,0.3,1.8,0.8,2.6,1.5c0.8,0.8,1.5,1.8,2.2,3.2c0.7,1.4,1.3,3.2,1.9,5.4l0.3,1.1h4.3V22.3h-4l-0.4,0.9
		c-0.3,0.6-0.4,0.8-0.5,0.9c0,0-0.1,0-0.2,0c0,0-0.3,0-1.3-0.2c-0.8-0.2-1.6-0.4-2.6-0.6c-1-0.2-1.9-0.4-2.9-0.6
		c-1-0.2-1.9-0.3-2.6-0.3c-2.1,0-4,0.4-5.8,1c-1.7,0.7-3.3,1.7-4.6,2.9c-1.3,1.2-2.3,2.7-3,4.4c-0.7,1.7-1.1,3.5-1.1,5.5
		c0,1.5,0.2,2.8,0.5,4c0.3,1.3,1,2.5,1.9,3.6c0.9,1.1,2.1,2.1,3.6,3.2c1.5,1,3.4,2.1,5.7,3.2c2.3,1.1,4.1,2.1,5.5,3
		c1.4,0.8,2.4,1.6,3.2,2.3c0.7,0.7,1.1,1.3,1.4,2c0.3,0.7,0.4,1.5,0.4,2.3c0,0.7-0.1,1.3-0.4,1.9c-0.3,0.6-0.7,1.1-1.2,1.6
		c-0.5,0.4-1.1,0.8-1.8,1.1c-0.7,0.3-1.5,0.4-2.4,0.4c-1.3,0-2.6-0.2-3.8-0.7c-1.2-0.5-2.4-1.2-3.4-2.2c-1-1-2-2.2-2.8-3.7
		c-0.8-1.5-1.4-3.3-1.8-5.3l-0.2-1.2H172v18.2h3.9l0.4-0.8c0.1-0.1,0.2-0.4,0.3-0.4c0.2,0,0.5,0,0.8,0.1c0.4,0.1,0.8,0.2,1.3,0.3
		c1.7,0.5,3.4,0.9,4.9,1.1c1.5,0.2,3,0.3,4.4,0.3c1.9,0,3.8-0.3,5.7-1c1.9-0.7,3.5-1.6,5-2.9c1.5-1.2,2.7-2.8,3.6-4.5
		c0.9-1.8,1.4-3.8,1.4-6C203.8,50.4,200.3,45.8,193.5,42.5z"/>
	<path class="st0" d="M242,50.1c-0.9,2.1-1.9,3.8-2.8,5.1c-0.9,1.3-1.8,2.3-2.8,3c-0.9,0.7-1.9,1.2-2.9,1.5c-1,0.3-2.2,0.4-3.3,0.4
		c-1.9,0-3.5-0.5-5-1.4c-1.5-1-2.8-2.3-3.9-3.9c-1.1-1.7-2-3.6-2.5-5.7c-0.6-2.2-0.9-4.4-0.9-6.8c0-1.9,0.2-3.8,0.7-5.6
		c0.4-1.7,1.1-3.2,1.9-4.5c0.8-1.2,1.8-2.2,3.1-2.9c1.2-0.7,2.5-1,4.1-1c3.1,0,4.5,1.3,4.8,4.2c0.2,2.7,1,4.5,2.2,5.5
		c1.2,0.9,2.7,1.4,4.5,1.4c1.8,0,3.2-0.5,4.3-1.5c1.1-1,1.6-2.3,1.6-4c0-1.4-0.4-2.9-1.3-4.3c-0.8-1.4-2-2.7-3.4-3.8
		c-1.4-1.1-3.1-2-4.9-2.7c-1.9-0.7-4-1-6.2-1c-3,0-5.8,0.6-8.5,1.8c-2.6,1.2-5,2.9-6.9,5c-2,2.1-3.6,4.7-4.7,7.6
		c-1.1,2.9-1.7,6.2-1.7,9.7c0,3.6,0.5,6.9,1.6,9.9c1.1,2.9,2.5,5.5,4.3,7.5c1.8,2.1,3.9,3.7,6.2,4.9c2.4,1.2,4.9,1.7,7.5,1.7
		c2.2,0,4.3-0.4,6.4-1.3c2.1-0.8,4-2.1,5.7-3.7c1.7-1.6,3.2-3.6,4.5-5.9c1.2-2.3,2.2-5,2.8-7.9l0.2-1.1l-3.7-2L242,50.1z"/>
	<path class="st0" d="M287.8,61.8c-0.1,0.8-0.3,1.3-0.6,1.7c-0.3,0.3-0.6,0.5-1.1,0.7c-0.7,0.2-1.8,0.3-3.1,0.3h-1.5v4.7h23.7v-4.7
		h-1.5c-1.1,0-2,0-2.8-0.1c-0.5,0-0.8-0.2-1.1-0.4c-0.3-0.3-0.5-0.8-0.7-1.6c-0.2-1-0.3-2.4-0.3-4.4V22.3h-3.9l-13.3,5.4
		c-0.1-0.5-0.3-0.9-0.5-1.3c-0.4-0.8-0.9-1.5-1.6-2.1c-0.7-0.6-1.5-1.1-2.3-1.4c-0.9-0.3-1.9-0.5-2.9-0.5c-3.3,0-6.5,2-9.5,6v-6H261
		l-14.3,5.8l1.1,4.5l1.6-0.6c0.6-0.2,1.1-0.4,1.6-0.5c0.4-0.1,0.8-0.1,1.2-0.1c0.6,0,1.3,0.1,1.7,1.6c0.1,0.3,0.1,1.1,0.2,2.7
		c0.1,1.4,0.1,3.4,0.1,5.8V58c0,1.6-0.1,2.9-0.3,3.9c-0.1,0.8-0.4,1.3-0.7,1.6c-0.3,0.3-0.7,0.5-1.3,0.7c-0.7,0.2-1.8,0.2-3,0.2
		h-1.5v4.7h24.8v-4.7h-1.5c-1.5,0-2.6-0.2-3.4-0.5c-0.7-0.3-1.2-0.7-1.6-1.1c-0.4-0.5-0.6-1.2-0.7-2c-0.1-0.9-0.2-2-0.2-3.2V37.6
		c1-1.8,1.9-3.4,2.9-4.5c1-1.2,1.5-1.4,1.7-1.5c0.1,0,0.2,0.1,0.5,0.3c0.5,0.3,1.1,0.7,1.7,1.1c0.7,0.5,1.4,0.9,2.1,1.2
		c0.9,0.4,1.7,0.6,2.4,0.6c1.5,0,2.9-0.6,4-1.7c0.7-0.7,1.1-1.5,1.4-2.4l0.8,1.8l1.3-0.5c0.6-0.2,1.1-0.4,1.5-0.5
		c0.4-0.1,0.7-0.1,1.1-0.1c0.6,0,0.9,0.1,1,0.1c0,0,0.1,0.1,0.3,0.6c0.1,0.4,0.3,1.4,0.4,3.2c0.1,1.5,0.1,3.7,0.1,6.3v16.4
		C288,59.5,287.9,60.8,287.8,61.8z"/>
	<path class="st0" d="M293.3,12.4c1.8,0,3.2-0.6,4.4-1.8c1.2-1.2,1.8-2.7,1.8-4.4c0-1.7-0.6-3.2-1.8-4.4c-1.2-1.2-2.7-1.8-4.4-1.8
		s-3.2,0.6-4.4,1.8c-1.2,1.2-1.8,2.7-1.8,4.4c0,1.7,0.6,3.2,1.8,4.4C290.1,11.8,291.6,12.4,293.3,12.4z"/>
	<path class="st0" d="M347.1,29.1c-1.5-2.1-3.4-3.8-5.5-5c-2.2-1.2-4.6-1.9-7.3-1.9c-2.7,0-5.4,0.8-7.8,2.5c-1.4,1-2.9,2.4-4.3,4.2
		v-6.5h-3.5L304,28.4l1.6,4.4l1.4-0.6c0.5-0.2,0.9-0.3,1.3-0.4c0.4-0.1,0.7-0.1,0.9-0.1c0.7,0,1.1,0.1,1.4,0.2c0,0,0.2,0.1,0.3,0.3
		c0.1,0.3,0.3,0.8,0.4,1.8c0.1,0.9,0.2,2.2,0.2,3.7v40.2c0,1.9-0.1,3.5-0.4,4.5c-0.3,1.1-0.6,1.6-0.8,1.9c-0.3,0.3-0.6,0.4-1,0.5
		c-0.7,0.1-1.6,0.1-2.5,0.1h-2.7v4.7h25.3v-4.7h-1.5c-2.9,0-3.9-0.4-4.1-0.5c-0.3-0.2-0.6-0.4-0.9-0.6c0,0-0.1-0.1-0.2-0.4
		c-0.1-0.3-0.2-0.8-0.3-1.7c-0.1-0.8-0.1-2-0.1-3.4v-9.9c0,0,0.1,0.1,0.1,0.1c0.9,0.6,1.8,1,2.7,1.3c0.9,0.3,1.8,0.5,2.8,0.6
		c0.9,0.1,1.9,0.1,3,0.1c3.2,0,6.1-0.7,8.8-2.1c2.6-1.4,4.8-3.3,6.6-5.7c1.8-2.4,3.2-5.1,4.1-8.2c0.9-3,1.4-6.3,1.4-9.7
		c0-3-0.4-5.9-1.2-8.5C349.7,33.5,348.6,31.1,347.1,29.1z M323.5,61.1c-0.4-0.6-0.7-1.3-0.9-2.1c-0.2-0.7-0.4-2.3-0.4-6.4V37.2
		c1.2-1.3,2.3-2.3,3.1-3.1c0.8-0.8,1.6-1.3,2.2-1.6c0.5-0.3,1-0.4,1.4-0.5c0.5-0.1,1.1-0.1,1.8-0.1c1.4,0,2.7,0.4,3.8,1.2
		c1.2,0.8,2.3,2,3.2,3.4c0.9,1.5,1.6,3.4,2.1,5.5c0.5,2.1,0.8,4.5,0.8,7.1c0,2.3-0.2,4.5-0.7,6.5v0c-0.4,1.9-1.1,3.5-2,4.9
		c-0.8,1.3-1.9,2.3-3.1,3.1c-1.2,0.7-2.5,1.1-4,1.1c-1.1,0-2.1-0.2-3-0.5c-0.9-0.3-1.8-0.7-2.5-1.3
		C324.5,62.4,323.9,61.7,323.5,61.1z"/>
	<path class="st0" d="M377.3,57.6l-0.4,0.9c-0.4,1-0.9,1.7-1.6,2.1c-0.7,0.5-1.4,0.7-2.2,0.7c-0.4,0-0.8-0.1-1.1-0.2
		c-0.3-0.1-0.5-0.3-0.7-0.6c-0.2-0.2-0.4-0.7-0.6-1.6c-0.2-0.8-0.3-1.9-0.3-3.1V29.8h9.9v-6.3h-9.9V9.6h-4l-0.4,0.9
		c-1.7,4.3-3.6,7.7-5.6,10c-1.9,2.3-4.1,3.9-6.5,4.8l-1,0.4v4.1h6.8v27.1c0,4.6,0.8,7.8,2.6,9.8c1.8,2,4.1,3.1,7,3.1
		c2.5,0,4.8-0.9,7.1-2.6c2.2-1.7,3.9-4.2,5.1-7.6l0.7-2H377.3z"/>
</g>
</svg>
