<?xml version="1.0" encoding="utf-8"?>
<!-- Generator: Adobe Illustrator 24.0.0, SVG Export Plug-In . SVG Version: 6.00 Build 0)  -->
<svg version="1.1" id="Layer_1" xmlns="http://www.w3.org/2000/svg" xmlns:xlink="http://www.w3.org/1999/xlink" x="0px" y="0px"
	 viewBox="0 0 717.7 244.8" style="enable-background:new 0 0 717.7 244.8;" xml:space="preserve">
<style type="text/css">
	.st0{fill:#FFFFFF;}
	.st1{fill:#FF5A19;}
</style>
<title>dami_logo</title>
<path class="st0" d="M282.7,71.9c-47.5,0-86,38.5-86,86s38.5,86,86,86c13.5,0,26.8-3.2,38.8-9.2v9.3h47.3v-86c0-2.5-0.2-5-0.4-7.4
	C364.5,106.1,327.3,71.9,282.7,71.9z M321.4,176.6c-10.3,21.4-36,30.4-57.4,20.1c-21.4-10.3-30.4-36-20.1-57.4
	c10.3-21.4,36-30.4,57.4-20.1c12.5,6,21.3,17.7,23.7,31.4c0.4,2.4,0.7,4.9,0.7,7.4C325.7,164.4,324.3,170.7,321.4,176.6z"/>
<rect x="670.4" y="71.9" class="st0" width="47.3" height="172.1"/>
<path class="st0" d="M598.6,77.4c-27-10.8-57.8-4.9-79,15.1c-30.1-28.4-77.5-26.9-105.9,3.2c-13.1,13.9-20.4,32.3-20.4,51.3v97.8
	h47.3V142.4c2.3-15.3,16.6-25.8,31.9-23.4c12.1,1.9,21.6,11.3,23.4,23.4v102.4h47.3V142.4c2.3-15.3,16.6-25.8,31.9-23.4
	c12.1,1.9,21.6,11.3,23.4,23.4v102.4h47.3V147C645.8,116.3,627.1,88.7,598.6,77.4z"/>
<path class="st0" d="M124.8,81.2C82.4,59.7,30.7,76.7,9.2,119.1s-4.5,94.1,37.9,115.6c24.4,12.4,53.3,12.4,77.7,0v9.3h47.3V47.3
	L124.8,0V81.2z M124.8,176.5c-10.3,21.1-35.8,29.9-56.9,19.6s-29.9-35.8-19.6-56.9s35.8-29.9,56.9-19.6c14.6,7.1,23.9,22,23.9,38.3
	C129.1,164.4,127.6,170.7,124.8,176.5L124.8,176.5z"/>
<polygon class="st1" points="670.4,47.3 717.7,47.3 670.4,0 "/>
</svg>
