<?xml version="1.0" encoding="utf-8"?>
<!-- Generator: Adobe Illustrator 24.0.0, SVG Export Plug-In . SVG Version: 6.00 Build 0)  -->
<svg version="1.1" id="Layer_1" xmlns="http://www.w3.org/2000/svg" xmlns:xlink="http://www.w3.org/1999/xlink" x="0px" y="0px"
	 viewBox="0 0 511.3 145.7" style="enable-background:new 0 0 511.3 145.7;" xml:space="preserve">
<style type="text/css">
	.st0{fill-rule:evenodd;clip-rule:evenodd;fill:#FFFFFF;}
	.st1{fill-rule:evenodd;clip-rule:evenodd;fill:#A6A385;}
	.st2{fill-rule:evenodd;clip-rule:evenodd;fill:#499D4A;}
	.st3{fill-rule:evenodd;clip-rule:evenodd;fill:#58AA50;}
</style>
<g>
	<path class="st0" d="M476.6,60.3c-0.4,0.1-0.9,1.1-0.9,1.7c-0.1,3.7-0.2,13.5-0.2,20.1c0,0.2,0.3,0.6,0.6,0.6
		c1.4,0.1,4.7,0.2,7.5,0.2c4,0,6.3-0.6,7.5-1.1c3.3-1.7,4.9-5.2,4.9-9.2c0-9-6.3-12.3-15.6-12.3C479.8,60,477.9,60,476.6,60.3
		L476.6,60.3z M500.4,101.5c0-9.1-6.7-14.2-18.9-14.2c-0.6,0-4.4-0.1-5.4,0.1c-0.3,0.1-0.6,0.3-0.6,0.6c0,6.5-0.1,17,0.2,21
		c0.2,1.7,1.5,4.2,3.1,5c1.7,0.9,5.4,1.1,8,1.1C494,115.1,500.4,111,500.4,101.5L500.4,101.5z M457.8,55.2c0.9,0,3.7,0.3,10.8,0.3
		c6.7,0,12.1-0.2,18.6-0.2c8,0,19.1,2.9,19.1,14.8c0,5.9-4.2,10.6-9.6,12.9c-0.3,0.1-0.3,0.3,0,0.4c7.7,1.9,14.6,6.7,14.6,15.8
		c0,8.8-5.6,14.5-13.6,18c-4.9,2.1-11,2.9-17.1,2.9c-4.7,0-17.3-0.6-24.4-0.4c-0.8-0.3,0.6-3.6,1.3-4.2c1.7-0.1,2.9-0.2,4.7-0.8
		c2.5-0.6,2.8-1.4,3.1-5.2c0.2-3.2,0.2-14.7,0.2-22.8c0-11.1,0.1-18.7,0-22.4c-0.1-2.9-1.1-3.8-3.1-4.4c-1.6-0.3-4.2-0.6-6.3-0.9
		C455.6,58.7,457.2,55.6,457.8,55.2L457.8,55.2z M404.6,112.6c2.2,1.7,6.5,2.5,10.4,2.5c5,0,10-0.9,14.8-5.2
		c4.9-4.4,8.3-11.3,8.3-22.1c0-10.4-4-18.9-12.1-23.9c-4.6-2.9-10.5-4-17.3-4c-2,0-4,0.1-5.2,0.6c-0.3,0.2-0.9,1-0.9,1.5
		c-0.2,1.9-0.2,16.1-0.2,24.4c0,8.6,0,20.6,0.2,21.9C402.5,109.5,403.1,111.6,404.6,112.6L404.6,112.6z M383.6,55.2
		c1.7,0,8.5,0.3,11.7,0.3c5.8,0,10-0.3,20.9-0.3c9.2,0,17,2.5,22.5,7.2C445.4,68.2,449,76.2,449,86c0,13.9-6.4,21.9-12.7,26.6
		c-6.3,4.7-14.7,7.5-26.5,7.5c-6.3,0-17.1-0.2-26-0.3h-0.1c-0.4-0.8,0.8-4,1.5-4.2c2.4-0.3,3.1-0.4,4.2-0.8c1.9-0.8,2.3-1.7,2.6-5.2
		c0.3-6.3,0.2-14,0.2-22.7c0-6.2,0.1-18.3-0.1-22.1c-0.3-3.2-1.7-4-4.4-4.6c-1.4-0.3-3.2-0.6-5.8-0.9
		C381.5,58.6,383.1,55.7,383.6,55.2L383.6,55.2z"/>
	<path class="st0" d="M272,116.2c-2.3-0.3-4-0.6-6-1.6c-0.3-0.2-0.8-1.1-0.8-1.5c-0.2-3.2-0.2-12.5-0.2-18.6c0-5-0.8-9.3-2.9-12.3
		c-2.5-3.5-6.1-5.6-10.7-5.6c-4,0-9.5,2.8-14,6.7c-0.1,0.1-0.8,0.8-0.8-0.3c0-1,0.2-3.1,0.3-4.4c0.1-1.3-0.6-1.9-0.6-1.9
		c-2.9,1.5-11.3,3.4-14.3,3.7c-2.2,0.4-2.8,2.6-0.4,3.3h0.1c2.5,0.8,4.2,1.6,5.4,2.4c0.9,0.8,0.8,1.7,0.8,2.6
		c0.1,6.9,0.1,17.5-0.2,23.4c-0.1,2.3-0.8,3.1-2.4,3.5l0.2-0.1c-1.3,0.3-2.3,0.6-3.9,0.8c-0.6,0.6-0.6,3.5,0,4.2
		c1,0,6.3-0.3,10.8-0.3c6.1,0,9.2,0.3,10.8,0.3c0.6-0.8,0.8-3.5,0.4-4.2c-1.7-0.1-3.1-0.3-4.2-0.6c-1.7-0.4-2.1-1.2-2.2-3.1
		c-0.2-4.9-0.2-15.2-0.2-22.3c0-1.9,0.6-2.9,1.1-3.4c2.1-1.9,5.6-3.1,8.6-3.1c2.9,0,4.9,0.9,6.3,2.1c2,1.7,2.7,4,2.9,5.8
		c0.4,4,0.3,11.8,0.3,18.6c0,3.7-0.3,4.6-1.7,5.1c-0.6,0.3-2.3,0.6-4.2,0.8c-0.6,0.6-0.4,3.5,0,4.2c2.7,0,5.8-0.3,10.4-0.3
		c5.7,0,9.4,0.3,10.9,0.3C272.1,119.6,272.3,116.9,272,116.2L272,116.2z M297.5,80.9c-4.9,0-7.9,3.8-7.9,9.7c0,6,2.7,12.9,10.2,12.9
		c1.3,0,3.7-0.6,4.8-1.9c1.7-1.7,2.9-5,2.9-8.5C307.6,85.5,303.8,80.9,297.5,80.9L297.5,80.9z M296.9,121.7c-1.9,0-3.1,0.6-4,1
		c-3.9,2.5-5.6,4.9-5.6,7.7c0,2.7,1,4.8,3.2,6.7c2.7,2.3,6.3,3.4,11.1,3.4c9.4,0,13.6-5.1,13.6-10c0-3.5-1.7-5.8-5.4-7.1
		C307.2,122.3,302.5,121.7,296.9,121.7L296.9,121.7z M297.5,145.7c-5.6,0-9.7-1.2-13.2-3.9c-3.4-2.6-4.9-6.5-4.9-9.1
		c0-0.8,0.2-2.8,1.9-4.6c1-1.1,3.2-3.2,8.5-6.8c0.2-0.1,0.3-0.2,0.3-0.4c0-0.2-0.2-0.4-0.4-0.4c-4.4-1.7-5.6-4.4-6-5.8v-0.1
		c-0.1-0.6-0.3-1.1,0.6-1.7c0.6-0.4,1.6-1,2.6-1.7c1.6-0.9,3.2-1.9,4.2-2.8c0.2-0.2,0.2-0.4,0.2-0.6c0-0.2-0.2-0.4-0.4-0.4
		c-6.5-2.1-9.7-6.9-9.7-14.1c0-4.7,2.1-9,5.9-11.6c2.6-2,9-4.5,13.3-4.5h0.3c4.4,0.1,6.7,1,10.2,2.2c1.9,0.6,3.6,0.9,6,0.9
		c3.6,0,5.2-1.1,6.5-2.4c0.1,0.2,0.3,0.6,0.4,1.9c0.1,1.2-0.3,2.9-1.2,4.2c-0.8,1-2.4,1.7-4,1.7H318c-1.7-0.2-2.4-0.4-2.4-0.4
		l-0.4,0.2c-0.1,0.2,0,0.4,0.1,0.6l0.1,0.2c0.2,0.8,0.6,3.3,0.6,4c0,7.5-3.1,10.9-6.3,13.4c-3.1,2.3-6.7,3.8-10.8,4.2
		c-0.1,0-0.4,0-1.3,0.1c-0.4,0-1.1,0.1-1.2,0.1h-0.1c-0.8,0.2-2.6,1.1-2.6,2.7c0,1.4,0.8,3.1,4.8,3.3c0.8,0.1,1.7,0.1,2.6,0.2
		c5.2,0.4,11.8,0.8,14.8,1.9c4.2,1.5,6.9,5.4,6.9,9.9c0,6.8-4.9,13.2-13,17.1C305.8,144.8,301.9,145.7,297.5,145.7L297.5,145.7z
		 M350.1,81.4c-1.9,0-3.7,0.4-5,1.4c-3.6,2.2-5.4,6.7-5.4,13.1c0,12.1,6.1,20.6,14.8,20.6c2.6,0,4.6-0.8,6.3-2.2
		c2.7-2.2,4-6.7,4-12.8C364.9,89.4,358.9,81.4,350.1,81.4L350.1,81.4z M351.8,120.9c-15.7,0-21.3-11.5-21.3-22.3
		c0-7.5,3.1-13.4,9.1-17.5c4.4-2.7,9.5-4.2,14.1-4.2c12,0,20.4,8.6,20.4,20.9c0,8.4-3.3,15-9.7,19.1
		C361.4,118.9,356.1,120.9,351.8,120.9L351.8,120.9L351.8,120.9z M187.3,81.4c-1.9,0-3.7,0.4-5,1.4c-3.6,2.2-5.4,6.7-5.4,13.1
		c0,12.1,6.1,20.6,14.8,20.6c2.6,0,4.6-0.8,6.3-2.2c2.7-2.2,4-6.7,4-12.8C202.1,89.4,196.2,81.4,187.3,81.4L187.3,81.4z M189,120.9
		c-15.7,0-21.3-11.5-21.3-22.3c0-7.5,3.1-13.4,9.1-17.5c4.4-2.7,9.5-4.2,14.1-4.2c12,0,20.4,8.6,20.4,20.9c0,8.4-3.3,15-9.7,19.1
		C198.7,118.9,193.4,120.9,189,120.9L189,120.9z M83.6,120c-0.2-0.3-0.4-1.1-0.3-2.1c0-0.8,0.2-1.2,0.3-1.4c1.9-0.3,2.9-0.6,4-0.8
		c1.9-0.4,2.6-1.5,2.7-3.8c0.3-5.6,0.3-16.1,0.2-23.4v-0.2c0-0.8,0-1.9-1-2.6c-1.5-0.9-3.2-1.7-5.6-2.4c-0.8-0.3-1.4-0.8-1.3-1.3
		c0-0.6,0.6-1.2,1.7-1.4c3.1-0.3,11-2.2,14.1-3.6c0.2,0.2,0.4,0.8,0.4,1.5l-0.1,1c-0.1,1-0.2,2.2-0.2,3.4c0,0.4,0.4,0.6,0.8,0.6
		c0.2,0,0.4-0.1,0.6-0.2c5.9-4.6,11.3-6.3,14-6.3c4.5,0,8,2.1,10.7,6.5c0.2,0.3,0.4,0.4,0.6,0.4c0.2,0,0.4-0.1,0.6-0.3
		c5.4-4.2,10.9-6.7,14.5-6.7c8.6,0,13.6,6.3,13.6,17.1c0,3.1,0,7-0.1,10.6c0,3.2-0.1,6.2-0.1,8.3c0,0.4,0.6,1.9,1.7,2.2
		c1.3,0.6,3.1,0.9,5.4,1.3h0.1c0.2,0.6-0.2,3.1-0.6,3.5c-0.6,0-1.4,0-2.3-0.1c-2.4-0.1-4.7-0.2-7-0.2c-5.7,0-8.7,0.1-11.5,0.3
		c-0.2-0.8-0.3-2.9,0-3.5c1.7-0.3,2.5-0.6,3.5-0.8c1.9-0.6,2.3-1.4,2.4-3.8c0-1.7,0.4-16.7-0.2-20.3c-0.6-3.7-3.3-8-9.4-8
		c-2.3,0-5.9,0.9-9.4,3.6c-0.2,0.2-0.4,0.6-0.4,0.9v0.1c0.4,1.9,0.4,4.2,0.4,7.5v6c0,4.2-0.1,8,0,11c0,2,1.2,2.5,2.2,2.9
		c0.6,0.1,0.9,0.2,1.4,0.3c0.8,0.2,1.7,0.4,2.9,0.6c0.2,0.4,0.2,1.6-0.1,2.6c-0.1,0.6-0.3,0.8-0.4,0.9c-3.1-0.1-6.3-0.2-11.1-0.2
		c-1.4,0-3.8,0.1-5.8,0.1c-1.7,0-3.2,0.1-4.2,0.1c-0.1-0.2-0.3-0.8-0.3-1.9c0-0.8,0.2-1.5,0.4-1.7c0.4-0.1,0.8-0.2,1.3-0.2
		c1.1-0.2,2-0.4,2.9-0.6c1.6-0.4,2.1-1.3,2.2-3.3c0.3-4.6,0.6-17.8-0.1-21.1c-1.1-5.4-4.2-8-9-8c-2.9,0-6.5,1.4-9.4,3.6
		c-0.4,0.4-0.8,1.3-0.8,2.1v5.4c0,6.7,0,15,0.1,18.6c0.1,1.1,0.4,2.4,2.6,2.9c0.4,0.1,1.2,0.3,2.1,0.4l1.7,0.3
		c0.2,0.6,0.1,2.8-0.3,3.5c-0.9,0-2-0.1-3.3-0.1c-1.9-0.1-4.4-0.2-7.2-0.2c-3.2,0-5.6,0.1-7.4,0.2C85.7,120,84.7,120,83.6,120
		L83.6,120z"/>
	<path class="st0" d="M35.1,142.1l-3.8-1.3c0,0,0.4-19.3-6.5-20.7c-4.6-5.4,0.8-226.9,17.3-0.8c0,0-5.7,2.9-6.7,7.7
		C34.3,131.9,35.1,142.1,35.1,142.1z"/>
	<path class="st1" d="M35.1,142.1l-3.8-1.3c0,0,0.4-19.3-6.5-20.7c-4.6-5.4,0.8-226.9,17.3-0.8c0,0-5.7,2.9-6.7,7.7
		C34.3,131.9,35.1,142.1,35.1,142.1z"/>
	<path class="st0" d="M37.1,123.5c0,0,33.1-21.8,25.4-67C55,23.5,37.4,12.7,35.5,8.6c-2.1-2.9-4.2-8.1-4.2-8.1L32.6,92
		C32.6,92.1,29.8,120,37.1,123.5"/>
	<path class="st2" d="M37.1,123.5c0,0,33.1-21.8,25.4-67C55,23.5,37.4,12.7,35.5,8.6c-2.1-2.9-4.2-8.1-4.2-8.1L32.6,92
		C32.6,92.1,29.8,120,37.1,123.5"/>
	<path class="st0" d="M29.3,124.7c0,0-31.1-21.2-29.2-58.6C1.8,28.7,23.8,10.4,28,7c2.8-2.9,2.9-4,3.1-7C33,4.2,32.7,62.1,33,68.9
		C33.8,95.3,31.4,119.7,29.3,124.7z"/>
	<path class="st3" d="M29.3,124.7c0,0-31.1-21.2-29.2-58.6C1.8,28.7,23.8,10.4,28,7c2.8-2.9,2.9-4,3.1-7C33,4.2,32.7,62.1,33,68.9
		C33.8,95.3,31.4,119.7,29.3,124.7z"/>
</g>
</svg>
