<?xml version="1.0" encoding="utf-8"?>
<!-- Generator: Adobe Illustrator 24.0.0, SVG Export Plug-In . SVG Version: 6.00 Build 0)  -->
<svg version="1.1" id="Layer_1" xmlns="http://www.w3.org/2000/svg" xmlns:xlink="http://www.w3.org/1999/xlink" x="0px" y="0px"
	 viewBox="0 0 352.3 136.1" style="enable-background:new 0 0 352.3 136.1;" xml:space="preserve">
<style type="text/css">
	.st0{fill:#FFFFFF;}
	.st1{fill:#539E43;}
	.st2{fill:url(#a_2_);}
	.st3{fill:none;}
	.st4{fill:url(#SVGID_1_);}
	.st5{fill-rule:evenodd;clip-rule:evenodd;fill:url(#SVGID_2_);}
	.st6{fill-rule:evenodd;clip-rule:evenodd;fill:url(#SVGID_3_);}
	.st7{fill-rule:evenodd;clip-rule:evenodd;fill:url(#SVGID_4_);}
	.st8{fill-rule:evenodd;clip-rule:evenodd;fill:url(#SVGID_5_);}
	.st9{fill-rule:evenodd;clip-rule:evenodd;fill:url(#SVGID_6_);}
</style>
<g>
	<path class="st0" d="M75.6,72.2c0-1.5-0.8-2.8-2.1-3.5L39.8,49.2c-0.6-0.3-1.2-0.5-1.9-0.6h-0.3c-0.6,0-1.3,0.2-1.9,0.6L2.1,68.7
		C0.8,69.4,0,70.7,0,72.2l0.1,52.3c0,0.7,0.4,1.5,1,1.8c0.6,0.4,1.4,0.4,2,0l20.1-11.5c1.3-0.7,2.1-2.1,2.1-3.5V86.8
		c0-1.5,0.8-2.8,2.1-3.5l8.5-4.9c0.6-0.4,1.4-0.6,2.1-0.6s1.5,0.2,2,0.6l8.5,4.9c1.3,0.7,2.1,2.1,2.1,3.5v24.4
		c0,1.5,0.8,2.8,2.1,3.5l20.1,11.5c0.6,0.4,1.5,0.4,2.1,0c0.6-0.3,1-1,1-1.8L75.6,72.2L75.6,72.2z M238,0.2c-0.6-0.3-1.5-0.3-2,0
		c-0.6,0.4-1,1-1,1.8v51.8c0,0.5-0.2,1-0.7,1.3c-0.5,0.2-1,0.2-1.5,0l-8.4-4.9c-1.3-0.7-2.8-0.7-4.1,0l-33.8,19.5
		c-1.3,0.7-2.1,2.1-2.1,3.5v39c0,1.5,0.8,2.8,2.1,3.5l33.8,19.5c1.3,0.7,2.8,0.7,4.1,0l33.8-19.5c1.3-0.7,2.1-2.1,2.1-3.5V15
		c0-1.5-0.8-2.9-2.1-3.6L238,0.2L238,0.2z M234.8,99.3c0,0.4-0.2,0.7-0.5,0.9l-11.6,6.7c-0.3,0.2-0.7,0.2-1,0l-11.6-6.7
		c-0.3-0.2-0.5-0.6-0.5-0.9V85.9c0-0.4,0.2-0.7,0.5-0.9l11.6-6.7c0.3-0.2,0.7-0.2,1,0l11.6,6.7c0.3,0.2,0.5,0.6,0.5,0.9L234.8,99.3
		L234.8,99.3z M350.3,85.6c1.3-0.7,2-2.1,2-3.5v-9.5c0-1.5-0.8-2.8-2-3.5l-33.5-19.4c-1.3-0.7-2.8-0.7-4.1,0L279,69.2
		c-1.3,0.7-2.1,2.1-2.1,3.5v38.9c0,1.5,0.8,2.8,2.1,3.5l33.5,19.1c1.3,0.7,2.8,0.7,4,0l20.3-11.3c0.6-0.3,1-1,1-1.8
		c0-0.7-0.4-1.5-1-1.8l-33.9-19.5c-0.6-0.4-1-1-1-1.8V86c0-0.7,0.4-1.5,1-1.8l10.6-6c0.6-0.4,1.5-0.4,2.1,0l10.6,6
		c0.6,0.4,1,1,1,1.8v9.6c0,0.7,0.4,1.5,1,1.8c0.6,0.4,1.4,0.4,2.1,0L350.3,85.6L350.3,85.6z"/>
	<path class="st1" d="M314.2,83.8c0.2-0.2,0.6-0.2,0.8,0l6.4,3.7c0.2,0.2,0.4,0.4,0.4,0.7v7.5c0,0.3-0.2,0.6-0.4,0.7l-6.4,3.7
		c-0.2,0.2-0.6,0.2-0.8,0l-6.4-3.7c-0.2-0.2-0.4-0.4-0.4-0.7v-7.5c0-0.3,0.2-0.6,0.4-0.7L314.2,83.8z"/>
	<g transform="translate(134.068 70.501)">
		<g>
			
				<linearGradient id="a_2_" gradientUnits="userSpaceOnUse" x1="-688.0484" y1="-439.8972" x2="-688.2264" y2="-439.5785" gradientTransform="matrix(170.2953 0 0 194.0376 117181.0547 85350.3672)">
				<stop  offset="0" style="stop-color:#41873F"/>
				<stop  offset="0.3288" style="stop-color:#418B3D"/>
				<stop  offset="0.6352" style="stop-color:#419637"/>
				<stop  offset="0.9319" style="stop-color:#3FA92D"/>
				<stop  offset="1" style="stop-color:#3FAE2A"/>
			</linearGradient>
			<path id="a_1_" class="st2" d="M-2-20.7c-1.3-0.7-2.8-0.7-4.1,0L-39.5-1.3c-1.3,0.7-2,2.1-2,3.5V41c0,1.5,0.8,2.8,2,3.5L-6,63.8
				c1.3,0.7,2.8,0.7,4.1,0l33.5-19.4c1.3-0.7,2-2.1,2-3.5V2.2c0-1.5-0.8-2.8-2-3.5L-2-20.7z"/>
		</g>
		<g>
			<path class="st3" d="M-6.1-20.7L-39.7-1.3c-1.3,0.7-2.2,2.1-2.2,3.5V41c0,1,0.4,1.9,1,2.6l37.7-64.6C-4-21.3-5.1-21.2-6.1-20.7
				L-6.1-20.7z M-2.8,64.2c0.3-0.1,0.6-0.2,1-0.4l33.6-19.4c1.3-0.7,2.1-2.1,2.1-3.5V2.2c0-1-0.5-2.1-1.2-2.8L-2.8,64.2L-2.8,64.2z"
				/>
			
				<linearGradient id="SVGID_1_" gradientUnits="userSpaceOnUse" x1="-688.1208" y1="-439.7306" x2="-687.6094" y2="-440.0547" gradientTransform="matrix(166.3219 0 0 193.9581 114440.4844 85315.4609)">
				<stop  offset="0.1376" style="stop-color:#41873F"/>
				<stop  offset="0.4032" style="stop-color:#54A044"/>
				<stop  offset="0.7136" style="stop-color:#66B848"/>
				<stop  offset="0.9081" style="stop-color:#6CC04A"/>
			</linearGradient>
			<path class="st4" d="M31.6-1.3L-2.1-20.7c-0.4-0.2-0.7-0.3-1-0.4l-37.7,64.7c0.3,0.4,0.7,0.7,1.1,1L-6,64c1,0.6,2.1,0.7,3.1,0.4
				L32.5-0.5C32.3-0.8,31.9-1,31.6-1.3L31.6-1.3z"/>
		</g>
		<g>
			<path class="st3" d="M33.8,41V2.2c0-1.5-0.9-2.8-2.2-3.5L-2.1-20.6c-0.4-0.2-0.8-0.4-1.3-0.5l36.9,63
				C33.7,41.7,33.8,41.3,33.8,41L33.8,41z M-39.7-1.3c-1.3,0.7-2.2,2.1-2.2,3.5V41c0,1.5,1,2.8,2.2,3.5L-6,63.8
				c0.8,0.5,1.7,0.6,2.6,0.5L-39.4-1.4L-39.7-1.3L-39.7-1.3z"/>
			
				<linearGradient id="SVGID_2_" gradientUnits="userSpaceOnUse" x1="-528.6053" y1="536.5133" x2="-485.6464" y2="536.5133" gradientTransform="matrix(1.4437 0 0 0.5422 727.4272 -318.5018)">
				<stop  offset="9.192000e-02" style="stop-color:#6CC04A"/>
				<stop  offset="0.2864" style="stop-color:#66B848"/>
				<stop  offset="0.5968" style="stop-color:#54A044"/>
				<stop  offset="0.8624" style="stop-color:#41873F"/>
			</linearGradient>
			<path class="st5" d="M-7.2-27.7l-0.5,0.2H-7L-7.2-27.7z"/>
			
				<linearGradient id="SVGID_3_" gradientUnits="userSpaceOnUse" x1="-688.3389" y1="-439.7548" x2="-687.8719" y2="-439.7548" gradientTransform="matrix(166.1422 0 0 194.1143 114319.3516 85384.3359)">
				<stop  offset="9.192000e-02" style="stop-color:#6CC04A"/>
				<stop  offset="0.2864" style="stop-color:#66B848"/>
				<stop  offset="0.5968" style="stop-color:#54A044"/>
				<stop  offset="0.8624" style="stop-color:#41873F"/>
			</linearGradient>
			<path class="st6" d="M31.7,44.5c1-0.6,1.7-1.5,2-2.6l-37-63.1c-1-0.2-2-0.1-2.9,0.5L-39.5-1.3l36.1,65.8c0.5-0.1,1-0.3,1.5-0.5
				L31.7,44.5L31.7,44.5z"/>
			
				<linearGradient id="SVGID_4_" gradientUnits="userSpaceOnUse" x1="-349.7036" y1="-93.9287" x2="-306.7447" y2="-93.9287" gradientTransform="matrix(0.5422 0 0 1.2641 200.9662 162.4815)">
				<stop  offset="9.192000e-02" style="stop-color:#6CC04A"/>
				<stop  offset="0.2864" style="stop-color:#66B848"/>
				<stop  offset="0.5968" style="stop-color:#54A044"/>
				<stop  offset="0.8624" style="stop-color:#41873F"/>
			</linearGradient>
			<path class="st7" d="M34.8,43.9l-0.2-0.4V44L34.8,43.9L34.8,43.9z"/>
			
				<linearGradient id="SVGID_5_" gradientUnits="userSpaceOnUse" x1="-687.6163" y1="-434.1941" x2="-686.7138" y2="-434.1941" gradientTransform="matrix(85.9594 0 0 53.6344 59064.3047 23341.4746)">
				<stop  offset="9.192000e-02" style="stop-color:#6CC04A"/>
				<stop  offset="0.2864" style="stop-color:#66B848"/>
				<stop  offset="0.5968" style="stop-color:#54A044"/>
				<stop  offset="0.8624" style="stop-color:#41873F"/>
			</linearGradient>
			<path class="st8" d="M31.7,44.5L-1.9,63.9c-0.5,0.2-1,0.4-1.5,0.5l0.6,1.2L34.5,44v-0.5l-1-1.6C33.4,43,32.7,43.9,31.7,44.5
				L31.7,44.5z"/>
			
				<linearGradient id="SVGID_6_" gradientUnits="userSpaceOnUse" x1="-686.5827" y1="-435.3464" x2="-687.1392" y2="-433.5266" gradientTransform="matrix(85.9594 0 0 53.6344 59064.3047 23341.4746)">
				<stop  offset="0" style="stop-color:#41873F"/>
				<stop  offset="0.3288" style="stop-color:#418B3D"/>
				<stop  offset="0.6352" style="stop-color:#419637"/>
				<stop  offset="0.9319" style="stop-color:#3FA92D"/>
				<stop  offset="1" style="stop-color:#3FAE2A"/>
			</linearGradient>
			<path class="st9" d="M31.7,44.5L-1.9,63.9c-0.5,0.2-1,0.4-1.5,0.5l0.6,1.2L34.5,44v-0.5l-1-1.6C33.4,43,32.7,43.9,31.7,44.5
				L31.7,44.5z"/>
		</g>
	</g>
</g>
</svg>
