<?xml version="1.0" encoding="utf-8"?>
<!-- Generator: Adobe Illustrator 24.0.0, SVG Export Plug-In . SVG Version: 6.00 Build 0)  -->
<svg version="1.1" id="Layer_1" xmlns="http://www.w3.org/2000/svg" xmlns:xlink="http://www.w3.org/1999/xlink" x="0px" y="0px"
	 viewBox="0 0 306.1 79.2" style="enable-background:new 0 0 306.1 79.2;" xml:space="preserve">
<style type="text/css">
	.st0{fill:#FFFFFF;}
	.st1{fill:#0071BC;}
</style>
<g>
	<g>
		<path class="st0" d="M149.6,66.1c-1.1-0.3-2.2-0.8-3.3-1.5c-1-0.7-2.1-1.7-3.2-2.9c-1.1-1.3-2.4-2.9-3.9-4.9l-11.5-16
			c4.5-1.3,7.9-3.3,10.2-5.9c2.7-3,4.1-6.7,4.1-11c0-2-0.3-3.8-1-5.5c-0.6-1.7-1.5-3.2-2.7-4.6c-1.1-1.4-2.4-2.6-3.9-3.5
			c-1.5-1-3.1-1.7-4.7-2.3c-1.6-0.5-3.7-0.9-6.3-1.2c-2.5-0.3-5.4-0.4-8.8-0.4H90.5v4.7h3.9c1.9,0,3.2,0.5,4.1,1.5
			c0.2,0.3,0.9,1.5,0.9,6.3V59c0,4.4-0.5,5.6-0.7,5.9c-0.9,1.3-2.3,1.9-4.4,1.9h-3.9v4.7h29.7v-4.7h-4c-0.9,0-1.7-0.1-2.4-0.2
			c-0.5-0.1-0.9-0.3-1.2-0.7c-0.3-0.3-0.6-0.9-0.9-2.1c-0.3-1.1-0.4-2.8-0.4-4.8V42.6c1,0,1.9,0,3,0c0.4,0,0.8,0,1.3-0.1l21,29h18.8
			V67l-1.3-0.1C152.2,66.7,150.8,66.4,149.6,66.1z M111.2,36.6V13.5c2.3-0.4,4.2-0.6,5.7-0.6c1.8,0,3.4,0.3,4.9,0.9
			c1.4,0.6,2.7,1.4,3.7,2.4c1,1,1.8,2.2,2.4,3.6c0.6,1.4,0.9,3,0.9,4.7c0,1.7-0.3,3.4-1,4.8c-0.7,1.4-1.7,2.7-3,3.8
			c-1.3,1.1-3.1,2-5.1,2.6c-2.1,0.6-4.6,1-7.4,1c-0.3,0-0.6,0-1,0C111.3,36.6,111.2,36.6,111.2,36.6z"/>
		<path class="st0" d="M189.1,53.3c-1.3,3.4-2.8,5.8-4.6,7.1c-1.8,1.3-3.8,2-6.3,2c-1.8,0-3.6-0.4-5.2-1.2c-1.6-0.8-3.1-2-4.3-3.6
			c-1.3-1.6-2.3-3.5-3.1-5.8c-0.7-1.9-1-4.1-1.1-6.4h28.9v-1.5c0-2.8-0.4-5.3-1.3-7.6c-0.9-2.3-2.1-4.2-3.7-5.9
			c-1.6-1.6-3.5-2.9-5.6-3.8c-2.1-0.9-4.5-1.3-7-1.3c-2.9,0-5.7,0.5-8.2,1.6c-2.5,1.1-4.8,2.7-6.7,4.8c-1.9,2.1-3.3,4.7-4.4,7.7
			c-1.1,3-1.6,6.4-1.6,10.1c0,3.5,0.5,6.7,1.6,9.5c1,2.8,2.5,5.3,4.2,7.3c1.8,2,3.9,3.6,6.3,4.7c2.4,1.1,5,1.7,7.7,1.7
			c2.5,0,4.9-0.5,7.1-1.6c2.1-1,4-2.4,5.6-4.1c1.6-1.7,2.9-3.6,3.9-5.7c1-2.1,1.7-4.3,2-6.5l0.2-1l-3.8-2.4L189.1,53.3z M173.3,31.5
			c2.2,0,3.9,0.7,5.2,2.2c1.2,1.3,1.9,3.3,2.2,6h-16.1c0.2-1,0.5-1.8,0.8-2.6c0.6-1.2,1.3-2.3,2.1-3.1c0.8-0.8,1.7-1.4,2.7-1.9
			C171.2,31.8,172.2,31.5,173.3,31.5z"/>
		<path class="st0" d="M232,63.2c-0.3,0.3-0.5,0.3-0.5,0.3c-0.2,0.1-0.5,0.1-0.6,0c0,0,0-0.1-0.1-0.2c-0.1-0.3-0.2-1-0.3-2.5
			c-0.1-1.3-0.1-3.1-0.1-5.5V41.3c0-4.4-0.3-7.1-0.9-8.7c-1.2-2.7-3.1-4.6-5.7-5.7c-2.4-1-5.4-1.6-8.8-1.6c-2.6,0-5,0.3-7,1
			c-2,0.7-3.8,1.6-5.3,2.7c-1.5,1.1-2.6,2.4-3.4,3.9c-0.8,1.5-1.2,3-1.2,4.5c0,1.7,0.5,3.2,1.5,4.3c1,1.1,2.4,1.7,3.9,1.7
			c1.6,0,2.9-0.5,3.9-1.6c1-1,1.5-2.5,1.5-4.4l-0.1-2.6c0-0.9,0.4-1.7,1.2-2.5c0.9-0.8,2-1.2,3.6-1.2c1.1,0,2,0.1,2.8,0.4
			c0.7,0.2,1.3,0.7,1.8,1.3c0.5,0.7,1,1.6,1.2,2.8c0.3,1.3,0.5,2.9,0.5,4.9v0.6c-4.2,1.5-8.1,3.2-11.7,4.9c-2.6,1.1-4.8,2.3-6.5,3.7
			c-1.7,1.4-3,2.9-3.9,4.6c-0.9,1.7-1.3,3.7-1.3,5.8c0,1.8,0.3,3.5,0.8,5c0.6,1.5,1.4,2.8,2.4,3.9c1,1.1,2.2,1.9,3.6,2.5
			c1.4,0.6,2.9,0.9,4.6,0.9c2,0,4-0.4,5.8-1.3c0.4-0.2,1.2-0.6,3.1-2c0.9-0.6,1.9-1.4,3.1-2.3c0.3,1.5,0.8,2.6,1.5,3.5
			c1.2,1.4,2.8,2,4.7,2c3.6,0,7.2-2.4,11-7.4l0.3-0.4v-6.7l-4.4,4.4C232.6,62.7,232.3,63,232,63.2z M208.7,62.4
			c-0.5-0.6-0.9-1.2-1.2-2c-0.3-0.8-0.4-1.6-0.4-2.5c0-1.5,0.3-2.8,1.1-3.9c0.7-1.2,1.7-2.1,2.9-2.7c3.2-1.6,6.1-2.9,8.8-4v13
			c-4,3.1-6.4,3.8-7.7,3.8c-0.6,0-1.2-0.1-1.8-0.4C209.7,63.4,209.2,63,208.7,62.4z"/>
		<path class="st0" d="M272.1,52.8c-0.9,2-1.8,3.7-2.8,5c-0.9,1.3-1.8,2.2-2.7,2.9c-0.9,0.7-1.9,1.2-2.9,1.4c-1,0.3-2.1,0.4-3.3,0.4
			c-1.9,0-3.5-0.4-4.9-1.4c-1.5-1-2.8-2.2-3.9-3.8c-1.1-1.6-1.9-3.5-2.5-5.6c-0.6-2.1-0.9-4.4-0.9-6.7c0-1.9,0.2-3.8,0.7-5.5
			c0.4-1.7,1.1-3.2,1.9-4.4c0.8-1.2,1.8-2.2,3-2.9c1.2-0.7,2.5-1,4.1-1c3,0,4.4,1.2,4.7,4.1c0.2,2.7,0.9,4.5,2.2,5.5
			c1.2,0.9,2.7,1.4,4.4,1.4c1.8,0,3.2-0.5,4.2-1.5c1.1-1,1.6-2.3,1.6-3.9c0-1.4-0.4-2.8-1.3-4.3c-0.8-1.4-1.9-2.6-3.4-3.7
			c-1.4-1.1-3-1.9-4.9-2.6c-1.9-0.7-3.9-1-6.1-1c-2.9,0-5.7,0.6-8.3,1.8c-2.6,1.2-4.9,2.8-6.8,4.9c-1.9,2.1-3.5,4.6-4.6,7.5
			c-1.1,2.9-1.7,6.1-1.7,9.6c0,3.6,0.5,6.9,1.6,9.7c1,2.9,2.5,5.4,4.2,7.4c1.8,2.1,3.8,3.7,6.2,4.8c2.3,1.1,4.8,1.7,7.4,1.7
			c2.1,0,4.3-0.4,6.3-1.2c2-0.8,3.9-2,5.6-3.6c1.7-1.6,3.2-3.5,4.4-5.8c1.2-2.3,2.1-4.9,2.7-7.8l0.2-1.1l-3.7-1.9L272.1,52.8z"/>
		<path class="st0" d="M301.2,60.2l-0.4,0.9c-0.4,1-0.9,1.6-1.6,2.1c-0.7,0.5-1.4,0.7-2.1,0.7c-0.4,0-0.8-0.1-1.1-0.2
			c-0.3-0.1-0.5-0.3-0.7-0.6c-0.2-0.2-0.4-0.7-0.6-1.5c-0.2-0.8-0.3-1.8-0.3-3.1V32.8h9.8v-6.2h-9.8V12.8h-3.9l-0.4,0.9
			c-1.7,4.3-3.6,7.6-5.5,9.9c-1.9,2.2-4.1,3.8-6.4,4.7l-1,0.4v4h6.7v26.7c0,4.5,0.8,7.7,2.6,9.7c1.7,2,4.1,3,6.9,3
			c2.4,0,4.8-0.9,7-2.6c2.2-1.7,3.9-4.2,5-7.5l0.7-2H301.2z"/>
	</g>
	<path class="st1" d="M31.7,33.4c-3.4,2-4.5,6.3-2.6,9.7s6.3,4.5,9.7,2.6s4.5-6.3,2.6-9.7c0,0,0,0,0,0
		C39.4,32.6,35.1,31.5,31.7,33.4z M63.4,41.1c-0.5-0.5-1-1.1-1.5-1.6c0.4-0.4,0.7-0.8,1-1.1c6.4-7.1,9-14.3,6.6-18.6
		c-2.4-4.1-9.5-5.4-18.4-3.6c-0.9,0.2-1.7,0.4-2.6,0.6c-0.2-0.6-0.3-1.1-0.5-1.7C45,5.9,40.1,0,35.2,0c-4.8,0-9.4,5.5-12.3,14.1
		c-0.3,0.8-0.6,1.7-0.8,2.6c-0.6-0.1-1.2-0.3-1.7-0.4c-9.4-1.9-16.9-0.7-19.4,3.7C-1.5,24,1,30.8,6.9,37.6c0.6,0.7,1.2,1.3,1.8,2
		c-0.7,0.8-1.4,1.5-2.1,2.3c-5.8,6.7-8.1,13.4-5.8,17.5c2.5,4.3,9.9,5.6,19,3.9c0.7-0.1,1.5-0.3,2.2-0.5c0.3,0.9,0.6,1.8,0.9,2.8
		c2.9,8.4,7.5,13.7,12.3,13.7c4.9,0,9.8-5.8,12.8-14.5c0.2-0.7,0.5-1.4,0.7-2.1c0.9,0.2,1.9,0.4,2.8,0.6c8.7,1.7,15.7,0.4,18-3.8
		C72,55.2,69.5,48,63.4,41.1L63.4,41.1z M3.8,21.6c1.5-2.7,7.7-3.7,15.8-2c0.5,0.1,1,0.2,1.6,0.4c-0.8,3.5-1.3,7-1.7,10.6
		c-2.9,2.1-5.7,4.3-8.3,6.7c-0.6-0.6-1.1-1.2-1.7-1.8l0,0C4.4,29.6,2.4,24.1,3.8,21.6z M19.2,44.3c-2-1.5-3.9-3.1-5.6-4.7
		c1.7-1.6,3.6-3.1,5.6-4.7c-0.1,1.6-0.1,3.1-0.1,4.7C19.1,41.2,19.1,42.7,19.2,44.3z M19.2,59.9c-3.4,0.8-7,0.9-10.5,0.4
		c-1.9-0.2-3.7-1.1-4.9-2.6c-1.4-2.5,0.4-7.8,5.4-13.6c0.6-0.7,1.3-1.4,1.9-2.1c2.6,2.4,5.4,4.7,8.3,6.7c0.3,3.6,0.9,7.2,1.7,10.7
		C20.6,59.6,19.9,59.8,19.2,59.9z M47.3,28c-1.3-0.8-2.7-1.6-4-2.4c-1.3-0.8-2.7-1.5-4.1-2.2c2.3-1,4.7-1.8,6.9-2.5
		C46.7,23.2,47.1,25.6,47.3,28L47.3,28z M26,15.2c2.5-7.3,6.2-11.8,9.1-11.8c3.1,0,7,4.8,9.6,12.7c0.2,0.5,0.3,1,0.5,1.5
		c-3.4,1.1-6.8,2.3-10,3.8c-3.2-1.5-6.6-2.8-10-3.9C25.5,16.8,25.8,16,26,15.2z M24.5,20.8c2.3,0.7,4.6,1.6,6.9,2.5
		c-2.8,1.4-5.5,3-8.1,4.7C23.5,25.5,23.9,23.1,24.5,20.8z M23.2,51.2c1.3,0.8,2.6,1.6,4,2.4c1.4,0.8,2.8,1.6,4.2,2.3
		c-2.3,1-4.6,1.9-6.9,2.6C24,56.2,23.5,53.7,23.2,51.2z M44.8,63.6c-1.1,3.4-2.7,6.5-4.9,9.2l0,0c-1.1,1.6-2.8,2.7-4.7,3
		c-2.9,0-6.6-4.3-9.1-11.5c-0.3-0.8-0.6-1.7-0.8-2.6c3.4-1.1,6.8-2.4,10-4c3.3,1.5,6.6,2.8,10.1,3.9C45.2,62.3,45,63,44.8,63.6
		L44.8,63.6z M46.2,58.4c-2.3-0.7-4.6-1.6-7-2.6c1.3-0.7,2.7-1.5,4.1-2.2c1.4-0.8,2.8-1.6,4.1-2.5C47.2,53.6,46.8,56,46.2,58.4
		L46.2,58.4z M48,39.6c0,2.4-0.1,4.8-0.2,7.2c-2,1.3-4,2.6-6.2,3.8c-2.1,1.2-4.2,2.4-6.3,3.4c-2.2-1-4.3-2.2-6.4-3.4
		c-2.1-1.2-4.1-2.5-6.1-3.8c-0.2-2.4-0.3-4.8-0.3-7.2l0,0c0-2.4,0.1-4.8,0.3-7.2c2-1.3,4-2.6,6.1-3.8c2.1-1.2,4.3-2.4,6.4-3.4
		c2.2,1,4.3,2.2,6.4,3.4c2.1,1.2,4.1,2.5,6.1,3.8C47.9,34.8,48,37.2,48,39.6L48,39.6z M51.8,19.4c7.6-1.5,13.3-0.5,14.8,2
		c1.5,2.7-0.7,8.5-6.2,14.7l0,0c-0.3,0.3-0.6,0.7-0.9,1c-2.7-2.4-5.5-4.7-8.5-6.7c-0.3-3.5-0.8-7-1.6-10.5
		C50.2,19.8,51,19.6,51.8,19.4L51.8,19.4z M51.3,34.8c2,1.5,3.9,3,5.8,4.7c-1.8,1.7-3.8,3.3-5.8,4.8c0.1-1.6,0.1-3.1,0.1-4.7
		C51.4,38,51.4,36.4,51.3,34.8L51.3,34.8z M66.6,57.7c-1.4,2.5-7,3.5-14.5,2.1c-0.9-0.2-1.7-0.4-2.6-0.6c0.8-3.5,1.3-7.1,1.5-10.6
		c3-2.1,5.8-4.3,8.5-6.8c0.5,0.5,0.9,1,1.3,1.4v0c2.4,2.6,4.3,5.6,5.6,8.9C67.2,53.9,67.3,55.9,66.6,57.7L66.6,57.7z"/>
</g>
<g>
	<g>
		<path class="st0" d="M38.6-207.9c-1.1-0.3-2.2-0.8-3.3-1.5c-1-0.7-2.1-1.7-3.2-2.9c-1.1-1.3-2.4-2.9-3.9-4.9l-11.5-16
			c4.5-1.3,7.9-3.3,10.2-5.9c2.7-3,4.1-6.7,4.1-11c0-2-0.3-3.8-1-5.5c-0.6-1.7-1.5-3.2-2.7-4.6c-1.1-1.4-2.4-2.6-3.9-3.5
			c-1.5-1-3.1-1.7-4.7-2.3c-1.6-0.5-3.7-0.9-6.3-1.2c-2.5-0.3-5.4-0.4-8.8-0.4h-24.1v4.7h3.9c1.9,0,3.2,0.5,4.1,1.5
			c0.2,0.3,0.9,1.5,0.9,6.3v40.1c0,4.4-0.5,5.6-0.7,5.9c-0.9,1.3-2.3,1.9-4.4,1.9h-3.9v4.7H9.1v-4.7h-4c-0.9,0-1.7-0.1-2.4-0.2
			c-0.5-0.1-0.9-0.3-1.2-0.7c-0.3-0.3-0.6-0.9-0.9-2.1c-0.3-1.1-0.4-2.8-0.4-4.8v-16.4c1,0,1.9,0,3,0c0.4,0,0.8,0,1.3-0.1l21,29
			h18.8v-4.6l-1.3-0.1C41.2-207.3,39.8-207.6,38.6-207.9z M0.2-237.4v-23.1c2.3-0.4,4.2-0.6,5.7-0.6c1.8,0,3.4,0.3,4.9,0.9
			c1.4,0.6,2.7,1.4,3.7,2.4c1,1,1.8,2.2,2.4,3.6c0.6,1.4,0.9,3,0.9,4.7c0,1.7-0.3,3.4-1,4.8c-0.7,1.4-1.7,2.7-3,3.8
			c-1.3,1.1-3.1,2-5.1,2.6c-2.1,0.6-4.6,1-7.4,1c-0.3,0-0.6,0-1,0C0.3-237.4,0.2-237.4,0.2-237.4z"/>
		<path class="st0" d="M78.1-220.7c-1.3,3.4-2.8,5.8-4.6,7.1c-1.8,1.3-3.8,2-6.3,2c-1.8,0-3.6-0.4-5.2-1.2c-1.6-0.8-3.1-2-4.3-3.6
			c-1.3-1.6-2.3-3.5-3.1-5.8c-0.7-1.9-1-4.1-1.1-6.4h28.9v-1.5c0-2.8-0.4-5.3-1.3-7.6c-0.9-2.3-2.1-4.2-3.7-5.9
			c-1.6-1.6-3.5-2.9-5.6-3.8c-2.1-0.9-4.5-1.3-7-1.3c-2.9,0-5.7,0.5-8.2,1.6c-2.5,1.1-4.8,2.7-6.7,4.8c-1.9,2.1-3.3,4.7-4.4,7.7
			c-1.1,3-1.6,6.4-1.6,10.1c0,3.5,0.5,6.7,1.6,9.5c1,2.8,2.5,5.3,4.2,7.3c1.8,2,3.9,3.6,6.3,4.7c2.4,1.1,5,1.7,7.7,1.7
			c2.5,0,4.9-0.5,7.1-1.6c2.1-1,4-2.4,5.6-4.1c1.6-1.7,2.9-3.6,3.9-5.7c1-2.1,1.7-4.3,2-6.5l0.2-1l-3.8-2.4L78.1-220.7z M62.3-242.5
			c2.2,0,3.9,0.7,5.2,2.2c1.2,1.3,1.9,3.3,2.2,6H53.6c0.2-1,0.5-1.8,0.8-2.6c0.6-1.2,1.3-2.3,2.1-3.1c0.8-0.8,1.7-1.4,2.7-1.9
			C60.2-242.2,61.2-242.5,62.3-242.5z"/>
		<path class="st0" d="M121-210.8c-0.3,0.3-0.5,0.3-0.5,0.3c-0.2,0.1-0.5,0.1-0.6,0c0,0,0-0.1-0.1-0.2c-0.1-0.3-0.2-1-0.3-2.5
			c-0.1-1.3-0.1-3.1-0.1-5.5v-14.2c0-4.4-0.3-7.1-0.9-8.7c-1.2-2.7-3.1-4.6-5.7-5.7c-2.4-1-5.4-1.6-8.8-1.6c-2.6,0-5,0.3-7,1
			c-2,0.7-3.8,1.6-5.3,2.7c-1.5,1.1-2.6,2.4-3.4,3.9c-0.8,1.5-1.2,3-1.2,4.5c0,1.7,0.5,3.2,1.5,4.3c1,1.1,2.4,1.7,3.9,1.7
			c1.6,0,2.9-0.5,3.9-1.6c1-1,1.5-2.5,1.5-4.4l-0.1-2.6c0-0.9,0.4-1.7,1.2-2.5c0.9-0.8,2-1.2,3.6-1.2c1.1,0,2,0.1,2.8,0.4
			c0.7,0.2,1.3,0.7,1.8,1.3c0.5,0.7,1,1.6,1.2,2.8c0.3,1.3,0.5,2.9,0.5,4.9v0.6c-4.2,1.5-8.1,3.2-11.7,4.9c-2.6,1.1-4.8,2.3-6.5,3.7
			c-1.7,1.4-3,2.9-3.9,4.6c-0.9,1.7-1.3,3.7-1.3,5.8c0,1.8,0.3,3.5,0.8,5c0.6,1.5,1.4,2.8,2.4,3.9c1,1.1,2.2,1.9,3.6,2.5
			c1.4,0.6,2.9,0.9,4.6,0.9c2,0,4-0.4,5.8-1.3c0.4-0.2,1.2-0.6,3.1-2c0.9-0.6,1.9-1.4,3.1-2.3c0.3,1.5,0.8,2.6,1.5,3.5
			c1.2,1.4,2.8,2,4.7,2c3.6,0,7.2-2.4,11-7.4l0.3-0.4v-6.7l-4.4,4.4C121.6-211.3,121.3-211,121-210.8z M97.7-211.6
			c-0.5-0.6-0.9-1.2-1.2-2c-0.3-0.8-0.4-1.6-0.4-2.5c0-1.5,0.3-2.8,1.1-3.9c0.7-1.2,1.7-2.1,2.9-2.7c3.2-1.6,6.1-2.9,8.8-4v13
			c-4,3.1-6.4,3.8-7.7,3.8c-0.6,0-1.2-0.1-1.8-0.4C98.7-210.6,98.2-211,97.7-211.6z"/>
		<path class="st0" d="M161.1-221.2c-0.9,2-1.8,3.7-2.8,5c-0.9,1.3-1.8,2.2-2.7,2.9c-0.9,0.7-1.9,1.2-2.9,1.4
			c-1,0.3-2.1,0.4-3.3,0.4c-1.9,0-3.5-0.4-4.9-1.4c-1.5-1-2.8-2.2-3.9-3.8c-1.1-1.6-1.9-3.5-2.5-5.6c-0.6-2.1-0.9-4.4-0.9-6.7
			c0-1.9,0.2-3.8,0.7-5.5c0.4-1.7,1.1-3.2,1.9-4.4c0.8-1.2,1.8-2.2,3-2.9c1.2-0.7,2.5-1,4.1-1c3,0,4.4,1.2,4.7,4.1
			c0.2,2.7,0.9,4.5,2.2,5.5c1.2,0.9,2.7,1.4,4.4,1.4c1.8,0,3.2-0.5,4.2-1.5c1.1-1,1.6-2.3,1.6-3.9c0-1.4-0.4-2.8-1.3-4.3
			c-0.8-1.4-1.9-2.6-3.4-3.7c-1.4-1.1-3-1.9-4.9-2.6c-1.9-0.7-3.9-1-6.1-1c-2.9,0-5.7,0.6-8.3,1.8c-2.6,1.2-4.9,2.8-6.8,4.9
			c-1.9,2.1-3.5,4.6-4.6,7.5c-1.1,2.9-1.7,6.1-1.7,9.6c0,3.6,0.5,6.9,1.6,9.7c1,2.9,2.5,5.4,4.2,7.4c1.8,2.1,3.8,3.7,6.2,4.8
			c2.3,1.1,4.8,1.7,7.4,1.7c2.1,0,4.3-0.4,6.3-1.2c2-0.8,3.9-2,5.6-3.6c1.7-1.6,3.2-3.5,4.4-5.8c1.2-2.3,2.1-4.9,2.7-7.8l0.2-1.1
			l-3.7-1.9L161.1-221.2z"/>
		<path class="st0" d="M190.2-213.8l-0.4,0.9c-0.4,1-0.9,1.6-1.6,2.1c-0.7,0.5-1.4,0.7-2.1,0.7c-0.4,0-0.8-0.1-1.1-0.2
			c-0.3-0.1-0.5-0.3-0.7-0.6c-0.2-0.2-0.4-0.7-0.6-1.5c-0.2-0.8-0.3-1.8-0.3-3.1v-25.7h9.8v-6.2h-9.8v-13.7h-3.9l-0.4,0.9
			c-1.7,4.3-3.6,7.6-5.5,9.9c-1.9,2.2-4.1,3.8-6.4,4.7l-1,0.4v4h6.7v26.7c0,4.5,0.8,7.7,2.6,9.7c1.7,2,4.1,3,6.9,3
			c2.4,0,4.8-0.9,7-2.6c2.2-1.7,3.9-4.2,5-7.5l0.7-2H190.2z"/>
	</g>
	<path class="st1" d="M-79.3-240.6c-3.4,2-4.5,6.3-2.6,9.7c2,3.4,6.3,4.5,9.7,2.6c3.4-2,4.5-6.3,2.6-9.7c0,0,0,0,0,0
		C-71.6-241.4-75.9-242.5-79.3-240.6z M-47.6-232.9c-0.5-0.5-1-1.1-1.5-1.6c0.4-0.4,0.7-0.8,1-1.1c6.4-7.1,9-14.3,6.6-18.6
		c-2.4-4.1-9.5-5.4-18.4-3.6c-0.9,0.2-1.7,0.4-2.6,0.6c-0.2-0.6-0.3-1.1-0.5-1.7c-3-9.1-7.9-15-12.9-15c-4.8,0-9.4,5.5-12.3,14.1
		c-0.3,0.8-0.6,1.7-0.8,2.6c-0.6-0.1-1.2-0.3-1.7-0.4c-9.4-1.9-16.9-0.7-19.4,3.7c-2.4,4.1,0.1,10.9,6.1,17.7c0.6,0.7,1.2,1.3,1.8,2
		c-0.7,0.8-1.4,1.5-2.1,2.3c-5.8,6.7-8.1,13.4-5.8,17.5c2.5,4.3,9.9,5.6,19,3.9c0.7-0.1,1.5-0.3,2.2-0.5c0.3,0.9,0.6,1.8,0.9,2.8
		c2.9,8.4,7.5,13.7,12.3,13.7c4.9,0,9.8-5.8,12.8-14.5c0.2-0.7,0.5-1.4,0.7-2.1c0.9,0.2,1.9,0.4,2.8,0.6c8.7,1.7,15.7,0.4,18-3.8
		C-39-218.8-41.5-226-47.6-232.9L-47.6-232.9z M-107.2-252.4c1.5-2.7,7.7-3.7,15.8-2c0.5,0.1,1,0.2,1.6,0.4c-0.8,3.5-1.3,7-1.7,10.6
		c-2.9,2.1-5.7,4.3-8.3,6.7c-0.6-0.6-1.1-1.2-1.7-1.8l0,0C-106.6-244.4-108.6-249.9-107.2-252.4z M-91.8-229.7
		c-2-1.5-3.9-3.1-5.6-4.7c1.7-1.6,3.6-3.1,5.6-4.7c-0.1,1.6-0.1,3.1-0.1,4.7C-91.9-232.8-91.9-231.3-91.8-229.7z M-91.8-214.1
		c-3.4,0.8-7,0.9-10.5,0.4c-1.9-0.2-3.7-1.1-4.9-2.6c-1.4-2.5,0.4-7.8,5.4-13.6c0.6-0.7,1.3-1.4,1.9-2.1c2.6,2.4,5.4,4.7,8.3,6.7
		c0.3,3.6,0.9,7.2,1.7,10.7C-90.4-214.4-91.1-214.2-91.8-214.1z M-63.7-246c-1.3-0.8-2.7-1.6-4-2.4c-1.3-0.8-2.7-1.5-4.1-2.2
		c2.3-1,4.7-1.8,6.9-2.5C-64.3-250.8-63.9-248.4-63.7-246L-63.7-246z M-85-258.8c2.5-7.3,6.2-11.8,9.1-11.8c3.1,0,7,4.8,9.6,12.7
		c0.2,0.5,0.3,1,0.5,1.5c-3.4,1.1-6.8,2.3-10,3.8c-3.2-1.5-6.6-2.8-10-3.9C-85.5-257.2-85.2-258-85-258.8z M-86.5-253.2
		c2.3,0.7,4.6,1.6,6.9,2.5c-2.8,1.4-5.5,3-8.1,4.7C-87.5-248.5-87.1-250.9-86.5-253.2z M-87.8-222.8c1.3,0.8,2.6,1.6,4,2.4
		c1.4,0.8,2.8,1.6,4.2,2.3c-2.3,1-4.6,1.9-6.9,2.6C-87-217.8-87.5-220.3-87.8-222.8z M-66.2-210.4c-1.1,3.4-2.7,6.5-4.9,9.2l0,0
		c-1.1,1.6-2.8,2.7-4.7,3c-2.9,0-6.6-4.3-9.1-11.5c-0.3-0.8-0.6-1.7-0.8-2.6c3.4-1.1,6.8-2.4,10-4c3.3,1.5,6.6,2.8,10.1,3.9
		C-65.8-211.7-66-211-66.2-210.4L-66.2-210.4z M-64.8-215.6c-2.3-0.7-4.6-1.6-7-2.6c1.3-0.7,2.7-1.5,4.1-2.2
		c1.4-0.8,2.8-1.6,4.1-2.5C-63.8-220.4-64.2-218-64.8-215.6L-64.8-215.6z M-63-234.4c0,2.4-0.1,4.8-0.2,7.2c-2,1.3-4,2.6-6.2,3.8
		c-2.1,1.2-4.2,2.4-6.3,3.4c-2.2-1-4.3-2.2-6.4-3.4c-2.1-1.2-4.1-2.5-6.1-3.8c-0.2-2.4-0.3-4.8-0.3-7.2l0,0c0-2.4,0.1-4.8,0.3-7.2
		c2-1.3,4-2.6,6.1-3.8c2.1-1.2,4.3-2.4,6.4-3.4c2.2,1,4.3,2.2,6.4,3.4c2.1,1.2,4.1,2.5,6.1,3.8C-63.1-239.2-63-236.8-63-234.4
		L-63-234.4z M-59.2-254.6c7.6-1.5,13.3-0.5,14.8,2c1.5,2.7-0.7,8.5-6.2,14.7l0,0c-0.3,0.3-0.6,0.7-0.9,1c-2.7-2.4-5.5-4.7-8.5-6.7
		c-0.3-3.5-0.8-7-1.6-10.5C-60.8-254.2-60-254.4-59.2-254.6L-59.2-254.6z M-59.7-239.2c2,1.5,3.9,3,5.8,4.7
		c-1.8,1.7-3.8,3.3-5.8,4.8c0.1-1.6,0.1-3.1,0.1-4.7C-59.6-236-59.6-237.6-59.7-239.2L-59.7-239.2z M-44.4-216.3
		c-1.4,2.5-7,3.5-14.5,2.1c-0.9-0.2-1.7-0.4-2.6-0.6c0.8-3.5,1.3-7.1,1.5-10.6c3-2.1,5.8-4.3,8.5-6.8c0.5,0.5,0.9,1,1.3,1.4v0
		c2.4,2.6,4.3,5.6,5.6,8.9C-43.8-220.1-43.7-218.1-44.4-216.3L-44.4-216.3z"/>
</g>
</svg>
