<?xml version="1.0" encoding="utf-8"?>
<!-- Generator: Adobe Illustrator 24.0.0, SVG Export Plug-In . SVG Version: 6.00 Build 0)  -->
<svg version="1.1" id="Layer_1" xmlns="http://www.w3.org/2000/svg" xmlns:xlink="http://www.w3.org/1999/xlink" x="0px" y="0px"
	 viewBox="0 0 488.7 69.8" style="enable-background:new 0 0 488.7 69.8;" xml:space="preserve">
<style type="text/css">
	.st0{fill:#FFFFFF;}
</style>
<g>
	<path class="st0" d="M59.4,63c-1.1-0.3-2.3-0.8-3.3-1.5l0,0c-1.1-0.7-2.1-1.7-3.2-2.9c-1.1-1.3-2.5-3-3.9-5L37.4,37.5
		c4.5-1.3,7.9-3.3,10.2-5.9c2.7-3.1,4.1-6.8,4.1-11c0-2-0.3-3.8-1-5.6c-0.7-1.7-1.6-3.3-2.7-4.6c-1.1-1.4-2.5-2.6-4-3.5
		c-1.5-1-3.1-1.7-4.8-2.3c-1.7-0.5-3.8-0.9-6.3-1.2C30.6,3.2,27.6,3,24.3,3H0v4.7h3.9c1.9,0,3.3,0.5,4.2,1.5C8.3,9.5,9,10.8,9,15.6
		V56c0,4.4-0.5,5.7-0.7,5.9c-0.9,1.3-2.3,1.9-4.4,1.9H0v4.7h29.8v-4.7h-4c-0.9,0-1.7-0.1-2.5-0.2c-0.5-0.1-0.9-0.3-1.2-0.7
		c-0.3-0.3-0.7-0.9-0.9-2.1c-0.3-1.1-0.4-2.8-0.4-4.8V39.4c1,0,1.9,0,3,0c0.4,0,0.8,0,1.3-0.1l21.1,29.2h18.9V64l-1.3-0.1
		C62.1,63.6,60.6,63.4,59.4,63z M20.8,33.4V10.2c2.3-0.4,4.2-0.6,5.7-0.6c1.8,0,3.4,0.3,4.9,0.9c1.5,0.6,2.7,1.4,3.8,2.4
		c1,1,1.8,2.3,2.4,3.7c0.6,1.4,0.9,3.1,0.9,4.8c0,1.7-0.3,3.4-1,4.8c-0.7,1.5-1.7,2.7-3,3.8c-1.4,1.1-3.1,2-5.1,2.6
		c-2.1,0.6-4.6,1-7.4,1c-0.3,0-0.6,0-1,0C20.9,33.5,20.9,33.5,20.8,33.4z"/>
	<path class="st0" d="M99.2,50.2c-1.3,3.4-2.8,5.8-4.6,7.2c-1.8,1.3-3.9,2-6.3,2c-1.8,0-3.6-0.4-5.2-1.2c-1.7-0.8-3.1-2-4.4-3.6
		c-1.3-1.6-2.3-3.6-3.1-5.9c-0.7-1.9-1-4.1-1.2-6.5h29.1v-1.5c0-2.8-0.5-5.4-1.3-7.6c-0.9-2.3-2.1-4.3-3.7-5.9
		c-1.6-1.6-3.5-2.9-5.6-3.8c-2.1-0.9-4.5-1.3-7-1.3c-2.9,0-5.7,0.5-8.3,1.6c-2.6,1.1-4.8,2.7-6.7,4.9c-1.9,2.1-3.3,4.7-4.4,7.7
		c-1.1,3-1.6,6.4-1.6,10.2c0,3.5,0.5,6.7,1.6,9.6c1,2.8,2.5,5.3,4.3,7.3c1.8,2,3.9,3.7,6.3,4.8c2.4,1.1,5,1.7,7.7,1.7
		c2.6,0,5-0.5,7.1-1.6c2.1-1,4-2.4,5.6-4.1c1.6-1.7,2.9-3.6,3.9-5.7c1-2.1,1.7-4.3,2.1-6.5l0.2-1l-3.8-2.4L99.2,50.2z M83.3,28.3
		c2.2,0,3.9,0.7,5.2,2.2c1.2,1.3,1.9,3.3,2.3,6.1H74.6c0.2-1,0.5-1.9,0.8-2.7c0.6-1.2,1.3-2.3,2.1-3.1c0.8-0.8,1.7-1.4,2.7-1.9
		C81.2,28.5,82.2,28.3,83.3,28.3z"/>
	<path class="st0" d="M143.4,59.2c-0.4,0.4-0.8,0.8-1.1,1c-0.3,0.3-0.5,0.3-0.5,0.3c-0.2,0.1-0.5,0.1-0.6,0c0,0,0-0.1-0.1-0.2
		c-0.1-0.3-0.2-1-0.3-2.5c-0.1-1.3-0.1-3.1-0.1-5.5V38.1c0-4.4-0.3-7.1-0.9-8.7c-1.2-2.7-3.1-4.6-5.7-5.7c-2.4-1-5.4-1.6-8.9-1.6
		c-2.6,0-5,0.3-7,1c-2.1,0.7-3.8,1.6-5.3,2.7c-1.5,1.1-2.6,2.4-3.4,3.9c-0.8,1.5-1.2,3-1.2,4.5c0,1.8,0.5,3.2,1.5,4.3
		c1,1.1,2.4,1.7,3.9,1.7c1.6,0,2.9-0.5,3.9-1.6c1-1,1.5-2.5,1.5-4.4l-0.1-2.6c0-0.9,0.4-1.7,1.2-2.5c0.9-0.8,2.1-1.2,3.7-1.2
		c1.1,0,2,0.1,2.8,0.4c0.7,0.3,1.3,0.7,1.8,1.3c0.5,0.7,1,1.6,1.3,2.8c0.3,1.3,0.5,3,0.5,4.9V38c-4.2,1.6-8.2,3.2-11.8,4.9
		c-2.6,1.1-4.8,2.3-6.5,3.7c-1.7,1.4-3.1,3-3.9,4.7c-0.9,1.7-1.3,3.7-1.3,5.8c0,1.8,0.3,3.5,0.9,5c0.6,1.5,1.4,2.8,2.4,3.9
		c1,1.1,2.3,1.9,3.7,2.5c1.4,0.6,3,0.9,4.6,0.9c2,0,4-0.4,5.9-1.3c0.4-0.2,1.2-0.6,3.2-2c0.9-0.6,1.9-1.4,3.2-2.3
		c0.3,1.5,0.8,2.6,1.5,3.5c1.2,1.4,2.8,2.1,4.7,2.1c3.7,0,7.3-2.4,11-7.5l0.3-0.4v-6.7L143.4,59.2L143.4,59.2z M118.9,59.4
		c-0.5-0.6-0.9-1.2-1.2-2c-0.3-0.8-0.4-1.6-0.4-2.5c0-1.5,0.3-2.8,1.1-4c0.7-1.2,1.7-2.1,2.9-2.7c3.2-1.6,6.2-2.9,8.8-4.1v13.1
		c-4,3.2-6.4,3.8-7.7,3.8c-0.6,0-1.3-0.1-1.9-0.4C119.9,60.3,119.4,59.9,118.9,59.4z"/>
	<path class="st0" d="M182.7,49.7c-0.9,2.1-1.9,3.8-2.8,5.1c-0.9,1.3-1.8,2.3-2.8,3c-0.9,0.7-1.9,1.2-2.9,1.4
		c-1,0.3-2.1,0.4-3.3,0.4c-1.9,0-3.5-0.5-5-1.4c-1.5-1-2.8-2.3-3.9-3.9c-1.1-1.6-1.9-3.6-2.5-5.7c-0.6-2.2-0.9-4.4-0.9-6.7
		c0-1.9,0.2-3.8,0.7-5.5c0.4-1.7,1.1-3.2,1.9-4.4c0.8-1.2,1.8-2.2,3-2.9c1.2-0.7,2.5-1,4.1-1c3,0,4.5,1.2,4.8,4.1
		c0.2,2.7,0.9,4.5,2.2,5.5c1.2,0.9,2.7,1.4,4.4,1.4c1.8,0,3.2-0.5,4.2-1.5c1.1-1,1.6-2.3,1.6-3.9c0-1.4-0.4-2.9-1.3-4.3
		c-0.8-1.4-1.9-2.6-3.4-3.7c-1.4-1.1-3.1-2-4.9-2.6c-1.9-0.7-4-1-6.2-1c-3,0-5.8,0.6-8.4,1.8c-2.6,1.2-4.9,2.8-6.9,5
		c-2,2.1-3.5,4.6-4.7,7.6c-1.1,2.9-1.7,6.1-1.7,9.6c0,3.6,0.5,6.9,1.6,9.8c1,2.9,2.5,5.4,4.2,7.5c1.8,2.1,3.9,3.7,6.2,4.8
		c2.4,1.2,4.8,1.7,7.4,1.7c2.2,0,4.3-0.4,6.3-1.2c2-0.8,3.9-2,5.7-3.6c1.7-1.6,3.2-3.5,4.4-5.8c1.2-2.3,2.2-4.9,2.7-7.9l0.2-1.1
		l-3.7-2L182.7,49.7z"/>
	<path class="st0" d="M211.6,58.1c-0.4,1-0.9,1.6-1.6,2.1h0c-0.7,0.5-1.4,0.7-2.2,0.7c-0.4,0-0.8-0.1-1.1-0.2
		c-0.3-0.1-0.5-0.3-0.7-0.6c-0.2-0.2-0.4-0.7-0.6-1.5c-0.2-0.8-0.3-1.8-0.3-3.1V29.5h9.8v-6.2h-9.8V9.5h-4l-0.4,0.9
		c-1.7,4.3-3.6,7.6-5.6,9.9c-1.9,2.2-4.1,3.9-6.4,4.8l-1,0.4v4h6.7v26.9c0,4.5,0.8,7.7,2.6,9.7c1.8,2,4.1,3.1,7,3.1
		c2.4,0,4.8-0.9,7-2.6c2.2-1.7,3.9-4.2,5-7.5l0.7-2H212L211.6,58.1z"/>
	<path class="st0" d="M281.8,7.7h3.7c1,0,1.8,0.1,2.5,0.2c0.5,0.1,0.9,0.3,1.3,0.7c0.3,0.3,0.6,0.9,0.9,2.1c0.3,1.1,0.4,2.7,0.4,4.7
		v31.8L254.6,3h-19.1v4.7h1.5c2,0,3.1,0.2,3.6,0.3c0.9,0.3,1.7,0.6,2.3,0.9c0.5,0.2,1,0.5,1.5,0.9c0.5,0.4,1,0.8,1.6,1.4
		c0.5,0.5,1.1,1.2,1.9,2.1v42.9c0,1.9-0.1,3.5-0.4,4.5c-0.2,0.9-0.5,1.6-0.9,2c-0.4,0.4-0.8,0.6-1.3,0.8c-0.7,0.2-1.6,0.2-2.6,0.2
		h-3.7v4.7h24.7v-4.7H260c-1,0-1.8-0.1-2.6-0.2c-0.5-0.1-0.9-0.3-1.2-0.6c-0.3-0.3-0.6-0.9-0.9-2.1c-0.3-1.1-0.4-2.7-0.4-4.7V21.9
		l39,47.6h3.9V15.4c0-1.9,0.1-3.5,0.4-4.5c0.2-0.9,0.5-1.7,0.9-2.1c0.3-0.4,0.7-0.6,1.2-0.7c0.7-0.2,1.6-0.2,2.6-0.2h3.8V3h-24.8
		V7.7z"/>
	<path class="st0" d="M344,60.2c-0.3,0.3-0.5,0.3-0.5,0.3c-0.2,0.1-0.5,0.1-0.6,0c0,0,0-0.1-0.1-0.2c-0.1-0.3-0.2-1-0.3-2.5
		c-0.1-1.3-0.1-3.1-0.1-5.5V38.1c0-4.4-0.3-7.1-0.9-8.7c-1.2-2.7-3.1-4.6-5.7-5.7c-2.4-1-5.4-1.6-8.9-1.6c-2.6,0-5,0.3-7,1
		c-2.1,0.7-3.8,1.6-5.3,2.7c-1.5,1.1-2.6,2.4-3.4,3.9c-0.8,1.5-1.2,3-1.2,4.5c0,1.8,0.5,3.2,1.5,4.3c1,1.1,2.4,1.7,3.9,1.7
		c1.6,0,2.9-0.5,3.9-1.6c1-1,1.5-2.5,1.5-4.4l-0.1-2.6c0-0.9,0.4-1.7,1.2-2.5c0.9-0.8,2.1-1.2,3.7-1.2c1.1,0,2,0.1,2.8,0.4
		c0.7,0.3,1.3,0.7,1.8,1.3c0.5,0.7,1,1.6,1.3,2.8c0.3,1.3,0.5,3,0.5,4.9V38c-4.2,1.6-8.2,3.2-11.8,4.9c-2.6,1.1-4.8,2.3-6.5,3.7
		c-1.7,1.4-3.1,3-3.9,4.7c-0.9,1.7-1.3,3.7-1.3,5.8c0,1.8,0.3,3.5,0.9,5c0.6,1.5,1.4,2.8,2.4,3.9c1,1.1,2.3,1.9,3.7,2.5
		c1.4,0.6,3,0.9,4.6,0.9c2,0,4-0.4,5.9-1.3c0.4-0.2,1.2-0.6,3.2-2c0.9-0.6,1.9-1.4,3.2-2.3c0.3,1.5,0.8,2.6,1.5,3.5
		c1.2,1.4,2.8,2,4.7,2c3.7,0,7.3-2.4,11-7.5l0.3-0.4v-6.7l-4.5,4.5C344.7,59.6,344.3,60,344,60.2z M320.6,59.4
		c-0.5-0.6-0.9-1.2-1.2-2c-0.3-0.8-0.4-1.6-0.4-2.5c0-1.5,0.3-2.8,1.1-4c0.7-1.2,1.7-2.1,2.9-2.7c3.2-1.6,6.2-2.9,8.8-4.1v13.1
		c-4,3.2-6.4,3.8-7.7,3.8c-0.6,0-1.3-0.1-1.9-0.4C321.6,60.3,321.1,59.9,320.6,59.4z"/>
	<path class="st0" d="M371.8,57.1l-0.4,0.9c-0.4,1-0.9,1.6-1.6,2.1h0c-0.7,0.5-1.4,0.7-2.2,0.7c-0.4,0-0.8-0.1-1.1-0.2
		c-0.3-0.1-0.5-0.3-0.7-0.6c-0.2-0.2-0.4-0.7-0.6-1.5c-0.2-0.8-0.3-1.9-0.3-3.1V29.5h9.8v-6.2H365V9.5h-4l-0.4,0.9
		c-1.7,4.3-3.6,7.6-5.6,9.9c-1.9,2.2-4.1,3.9-6.4,4.8l-1,0.4v4h6.7v26.9c0,4.5,0.8,7.7,2.6,9.7c1.8,2,4.1,3.1,7,3.1
		c2.4,0,4.8-0.9,7-2.6c2.2-1.7,3.9-4.2,5-7.5l0.7-2H371.8z"/>
	<path class="st0" d="M388.1,12.4c1.7,0,3.2-0.6,4.4-1.8c1.2-1.2,1.8-2.7,1.8-4.3c0-1.7-0.6-3.2-1.8-4.4c-1.2-1.2-2.7-1.8-4.4-1.8
		s-3.2,0.6-4.4,1.8C382.6,3,382,4.4,382,6.2c0,1.7,0.6,3.1,1.8,4.3C384.9,11.7,386.4,12.4,388.1,12.4z"/>
	<path class="st0" d="M395.6,63.8c-0.5,0-0.8-0.2-1.1-0.4c-0.2-0.1-0.5-0.5-0.7-1.5c-0.2-1-0.3-2.4-0.3-4.3V22.1h-3.9l-14.4,5.8
		l1.8,4.4l1.3-0.5c0.6-0.2,1.1-0.4,1.5-0.5c0.4-0.1,0.7-0.1,1.1-0.1c0.6,0,0.9,0.1,1,0.1c0,0,0.1,0.1,0.3,0.6s0.3,1.3,0.4,3.1
		c0.1,1.5,0.1,3.6,0.1,6.2v16.2c0,1.5-0.1,2.8-0.2,3.8c-0.1,0.8-0.3,1.3-0.6,1.7c-0.2,0.3-0.6,0.5-1.1,0.7c-0.7,0.2-1.8,0.3-3,0.3
		h-1.5v4.7h23.5v-4.7h-1.5C397.3,63.9,396.4,63.8,395.6,63.8z"/>
	<path class="st0" d="M431.7,28h1.5c2,0,2.8,0.2,3.1,0.3c0.1,0,0.2,0.1,0.2,0.4c0,0.5-0.2,1.5-0.9,3.4L427.1,53l-8.4-20
		c-0.7-1.7-0.9-2.6-0.8-3.2c0-0.8,0.3-1.1,0.4-1.3c0.3-0.3,0.9-0.5,1.7-0.5h2.8v-4.7h-22.9v4.5l1.3,0.2c1,0.1,1.8,0.3,2.4,0.5
		c0.6,0.2,1,0.5,1.5,0.8c0.4,0.3,0.8,0.8,1.1,1.4c0.4,0.7,0.8,1.5,1.2,2.6l15.4,36.5h3.9l15.4-37.2c0.4-0.8,0.7-1.6,1-2.2
		c0.2-0.5,0.5-0.9,0.9-1.3c0.3-0.3,0.7-0.6,1.1-0.7c0.5-0.2,1.1-0.3,2-0.4l1.4-0.1v-4.6h-16.8V28z"/>
	<path class="st0" d="M484.8,48.5l-0.6,1.7c-1.3,3.4-2.8,5.8-4.6,7.2c-1.8,1.3-3.8,2-6.3,2c-1.8,0-3.6-0.4-5.2-1.2
		c-1.7-0.8-3.1-2-4.4-3.6c-1.3-1.6-2.3-3.6-3.1-5.9c-0.7-1.9-1-4.1-1.2-6.5h29.1v-1.5c0-2.8-0.5-5.4-1.3-7.6
		c-0.9-2.3-2.1-4.3-3.7-5.9c-1.6-1.6-3.5-2.9-5.6-3.8c-2.1-0.9-4.5-1.3-7-1.3c-2.9,0-5.7,0.5-8.3,1.6c-2.6,1.1-4.8,2.7-6.7,4.9
		c-1.9,2.1-3.3,4.7-4.4,7.7c-1.1,3-1.6,6.4-1.6,10.2c0,3.5,0.5,6.7,1.6,9.6c1,2.8,2.5,5.3,4.3,7.3c1.8,2.1,3.9,3.7,6.3,4.8
		c2.4,1.1,5,1.7,7.7,1.7c2.6,0,5-0.5,7.1-1.6c2.1-1,4-2.4,5.6-4.1c1.6-1.7,2.9-3.6,3.9-5.7c1-2.1,1.7-4.3,2.1-6.5l0.2-1L484.8,48.5z
		 M468.3,28.3c2.2,0,3.9,0.7,5.2,2.2c1.2,1.3,1.9,3.3,2.3,6.1h-16.2c0.2-1,0.5-1.9,0.8-2.7c0.6-1.2,1.3-2.3,2.1-3.1
		c0.8-0.8,1.7-1.4,2.7-1.9C466.2,28.5,467.2,28.3,468.3,28.3z"/>
</g>
</svg>
