<?xml version="1.0" encoding="utf-8"?>
<!-- Generator: Adobe Illustrator 24.0.0, SVG Export Plug-In . SVG Version: 6.00 Build 0)  -->
<svg version="1.1" id="Layer_1" xmlns="http://www.w3.org/2000/svg" xmlns:xlink="http://www.w3.org/1999/xlink" x="0px" y="0px"
	 viewBox="0 0 512.1 75.1" style="enable-background:new 0 0 512.1 75.1;" xml:space="preserve">
<style type="text/css">
	.st0{fill:#FFFFFF;}
</style>
<g>
	<path class="st0" d="M32.8,33.8H20.2V58c0,6.4,4.3,6.3,12.5,6v9.8C16,75.8,9.3,71.2,9.3,58.1V33.9H0V23.4h9.3V9.8l10.9-3.2v16.8
		h12.5V33.8z M80.5,23.3h10.9v50.5H80.5v-7.3c-3.8,5.4-9.8,8.6-17.6,8.6c-13.7,0-25.1-11.6-25.1-26.6c0-15,11.4-26.6,25.1-26.6
		c7.9,0,13.8,3.2,17.6,8.5V23.3z M64.6,64.6c9.1,0,16-6.8,16-16.2s-6.9-16.2-16-16.2s-16,6.8-16,16.2S55.4,64.6,64.6,64.6z
		 M109.6,15.7c-3.8,0-7-3.2-7-7c0-3.8,3.1-7,7-7s7,3.1,7,7C116.6,12.4,113.5,15.7,109.6,15.7z M104.2,73.8V23.3h10.9v50.5H104.2z
		 M127.6,73.8V0h10.9v73.8H127.6z M209.4,23.3h11.6L205,73.8h-10.7l-10.5-34.1l-10.6,34.1h-10.7l-15.9-50.5h11.6l9.8,34.8l10.6-34.8
		h10.4l10.5,34.8L209.4,23.3z M234.4,15.7c-3.8,0-7-3.2-7-7c0-3.8,3.1-7,7-7c3.8,0,7,3.1,7,7C241.4,12.4,238.2,15.7,234.4,15.7z
		 M229,73.8V23.3H240v50.5H229z M279.1,22c11.3,0,19.4,7.6,19.4,20.8v31h-10.9V43.9c0-7.6-4.4-11.7-11.3-11.7
		c-7.2,0-12.9,4.3-12.9,14.5v27.1h-10.9V23.3h10.9v6.4C266.7,24.5,272.2,22,279.1,22z M350.2,3h10.9v70.7h-10.9v-7.3
		c-3.8,5.4-9.8,8.6-17.6,8.6c-13.7,0-25.1-11.6-25.1-26.6c0-15,11.4-26.6,25.1-26.6c7.9,0,13.8,3.2,17.6,8.5V3z M334.2,64.6
		c9.1,0,16-6.8,16-16.2s-6.9-16.2-16-16.2s-16,6.8-16,16.2S325.1,64.6,334.2,64.6z M397.7,75.1c-15.3,0-26.7-11.6-26.7-26.6
		c0-15,11.4-26.6,26.7-26.6c9.9,0,18.5,5.1,22.5,13l-9.4,5.5c-2.3-4.8-7.2-7.8-13.2-7.8c-8.9,0-15.6,6.8-15.6,15.9
		s6.8,15.9,15.6,15.9c6.1,0,11-3.1,13.5-7.8l9.4,5.4C416.2,69.9,407.6,75.1,397.7,75.1z M438.4,37.2c0,9.2,27.2,3.6,27.2,22.3
		c0,10.1-8.8,15.6-19.7,15.6c-10.1,0-17.4-4.5-20.6-11.8l9.4-5.5c1.7,4.5,5.6,7.3,11.2,7.3c4.9,0,8.6-1.7,8.6-5.6
		c0-8.9-27.2-3.9-27.2-22c0-9.5,8.2-15.5,18.5-15.5c8.3,0,15.1,3.8,18.7,10.5l-9.2,5.1c-1.8-3.9-5.4-5.7-9.5-5.7
		C441.8,31.9,438.4,33.5,438.4,37.2z M484.9,37.2c0,9.2,27.2,3.6,27.2,22.3c0,10.1-8.8,15.6-19.7,15.6c-10.1,0-17.4-4.5-20.6-11.8
		l9.4-5.5c1.7,4.5,5.6,7.3,11.2,7.3c4.9,0,8.6-1.7,8.6-5.6c0-8.9-27.2-3.9-27.2-22c0-9.5,8.2-15.5,18.5-15.5
		c8.3,0,15.1,3.8,18.7,10.5l-9.2,5.1c-1.8-3.9-5.4-5.7-9.5-5.7C488.4,31.9,484.9,33.5,484.9,37.2z"/>
</g>
</svg>
