<?xml version="1.0" encoding="utf-8"?>
<!-- Generator: Adobe Illustrator 24.0.0, SVG Export Plug-In . SVG Version: 6.00 Build 0)  -->
<svg version="1.1" id="Layer_1" xmlns="http://www.w3.org/2000/svg" xmlns:xlink="http://www.w3.org/1999/xlink" x="0px" y="0px"
	 viewBox="0 0 410 91.6" style="enable-background:new 0 0 410 91.6;" xml:space="preserve">
<style type="text/css">
	.st0{fill:#FFFFFF;}
</style>
<g>
	<path class="st0" d="M57.1,3.1H0v19.8h6.6l0.1-2.3c0.1-1.9,0.4-3.5,0.9-4.6c0.5-1,1-1.8,1.8-2.3c0.8-0.6,1.7-1,2.8-1.2
		c1.3-0.3,2.8-0.4,4.5-0.4h5.1v45.7c0,1.9-0.1,3.3-0.4,4.3c-0.3,1.1-0.6,1.5-0.7,1.7c-0.2,0.2-0.4,0.4-0.8,0.4
		c-0.6,0.1-1.4,0.2-2.4,0.2h-4.7v6.7h31.7v-6.7h-4.6c-0.9,0-1.8-0.1-2.4-0.2c-0.3-0.1-0.5-0.2-0.7-0.4c-0.1-0.1-0.4-0.5-0.7-1.6
		c-0.3-1-0.4-2.5-0.4-4.4V12H42c2.9,0,5.1,0.6,6.4,1.8c1.4,1.2,2.3,3.5,2.7,6.9l0.3,2.2h5.7V3.1z"/>
	<path class="st0" d="M147.2,29.5c-1.6-2.2-3.6-4-5.8-5.3c-2.3-1.3-5-2-7.8-2c-3,0-5.8,0.9-8.4,2.7c-0.9,0.6-1.8,1.4-2.7,2.3v-4.8
		h-4.7l-10.6,4.3v-3.2H88.3v6.7h2.5c0.9,0,1.5,0.1,1.8,0.1c0,0.9-0.2,1.7-0.6,2.6l-7.4,18.3l-7.9-16.4c-1.1-2.3-1.3-3.4-1.3-3.9
		c0-0.2,0-0.3,0.2-0.4c0.2-0.1,0.6-0.3,1.5-0.3h3.5v-6.7H55.7v6.2l2,0.4c1.4,0.3,2.5,0.9,3.3,1.7c0.9,1,1.8,2.3,2.5,4L78.4,67
		l-2.6,6.3c-1.3,3.1-2.3,4.3-2.7,4.7c-0.6,0.6-1,0.8-1.2,0.8c-0.1,0-0.2-0.1-0.4-0.1c-0.6-0.2-1.2-0.4-1.9-0.6
		c-0.7-0.2-1.4-0.4-2.1-0.6c-0.9-0.3-1.6-0.4-2.2-0.4c-2.1,0-3.9,0.6-5.2,1.8c-1.4,1.3-2.1,3-2.1,5c0,1.1,0.2,2.1,0.7,3.1
		c0.4,0.9,1.1,1.8,1.9,2.5c0.8,0.7,1.7,1.2,2.8,1.6c1,0.4,2.2,0.6,3.4,0.6c1.6,0,3.2-0.3,4.8-1c1.6-0.6,3.1-1.5,4.6-2.7
		c1.4-1.2,2.8-2.6,4.1-4.4c1.3-1.7,2.4-3.7,3.3-5.9l17.3-42.4c0.6-1.4,1.1-2.5,1.5-3.2c0.2-0.5,0.4-0.8,0.6-1l1.5,4.1l2.4-1
		c0.4-0.2,0.8-0.3,1.2-0.4c0.4-0.1,0.6-0.1,0.7-0.1c0.4,0,0.6,0,0.8,0.1c0.1,0.2,0.2,0.6,0.3,1.3c0.1,0.9,0.2,2.1,0.2,3.6v40.2
		c0,2.3-0.2,3.6-0.3,4.2c-0.2,1-0.5,1.4-0.6,1.4c-0.1,0.1-0.2,0.2-0.4,0.2c-0.7,0.1-1.5,0.1-2.4,0.1h-3.7v6.7h27.3v-6.7h-2.5
		c-2.8,0-3.6-0.4-3.6-0.4c-0.2-0.1-0.5-0.3-0.6-0.4c0,0,0,0,0-0.1c-0.1-0.2-0.2-0.6-0.3-1.5c-0.1-0.8-0.1-1.9-0.1-3.3v-8.1
		c0.5,0.2,1,0.5,1.5,0.6c1,0.3,2,0.6,3,0.7c0.9,0.1,2,0.2,3.1,0.2c3.4,0,6.5-0.8,9.2-2.2c2.7-1.5,5-3.5,6.9-6
		c1.9-2.4,3.3-5.3,4.3-8.5c1-3.1,1.5-6.5,1.5-10c0-3.1-0.4-6.1-1.2-8.8C150,34.1,148.8,31.6,147.2,29.5z M133.5,63.7
		c-1,0.6-2.2,0.9-3.5,0.9c-1,0-1.9-0.1-2.7-0.4c-0.8-0.3-1.6-0.7-2.2-1.1c-0.6-0.5-1.1-1-1.5-1.6c-0.4-0.5-0.6-1.1-0.7-1.7l0-0.1
		c-0.1-0.5-0.3-2-0.3-6.2V38.6c1.1-1.1,2-2,2.7-2.7c1-0.9,1.6-1.3,2-1.5c0.5-0.3,0.9-0.4,1.1-0.4c0.5-0.1,1.1-0.1,1.7-0.1
		c1.2,0,2.3,0.3,3.3,1c1.1,0.7,2.1,1.8,2.9,3.1c0.9,1.4,1.5,3.2,2,5.2c0.5,2.1,0.7,4.4,0.7,6.8c0,2.2-0.2,4.3-0.7,6.2
		c-0.4,1.8-1,3.3-1.8,4.6C135.5,62.1,134.6,63,133.5,63.7z"/>
	<path class="st0" d="M188.5,51.3c-1.2,3.3-2.7,5.5-4.3,6.8c-1.6,1.2-3.5,1.8-5.8,1.8c-1.7,0-3.3-0.4-4.8-1.1
		c-1.5-0.8-2.9-1.9-4.1-3.3c-1.2-1.5-2.2-3.4-3-5.6c-0.5-1.6-0.9-3.3-1-5.2h29.3V42c0-2.9-0.5-5.6-1.4-8.1c-0.9-2.4-2.3-4.5-4-6.3
		c-1.7-1.7-3.7-3.1-6-4c-2.3-0.9-4.8-1.4-7.5-1.4c-3.1,0-6,0.6-8.7,1.7c-2.7,1.2-5.1,2.9-7.1,5.2c-2,2.2-3.5,4.9-4.6,8.1
		c-1.1,3.1-1.7,6.7-1.7,10.6c0,3.7,0.6,7,1.6,10c1.1,3,2.6,5.6,4.5,7.7c1.9,2.2,4.2,3.9,6.7,5.1c2.6,1.2,5.3,1.8,8.2,1.8
		c2.7,0,5.3-0.6,7.6-1.7c2.2-1.1,4.3-2.6,6-4.4c1.7-1.8,3.1-3.8,4.1-6c1.1-2.2,1.8-4.5,2.2-6.8l0.3-1.6l-5.5-3.4L188.5,51.3z
		 M166.4,35.6c0.5-1.1,1.2-2.1,1.9-2.9c0.7-0.7,1.5-1.3,2.4-1.7c0.9-0.4,1.8-0.6,2.7-0.6c1.9,0,3.4,0.6,4.6,1.9
		c0.9,1,1.5,2.5,1.9,4.5h-13.9C166.1,36.4,166.2,36,166.4,35.6z"/>
	<path class="st0" d="M220.4,42.6l-6.8-3.3c-1.4-0.7-2.5-1.3-3.3-1.9c-0.8-0.5-1.4-1-1.8-1.5c-0.3-0.4-0.5-0.7-0.6-1.1
		c-0.1-0.5-0.2-1.1-0.2-1.8c0-0.3,0.1-0.5,0.2-0.8c0.2-0.3,0.5-0.7,0.8-0.9c0.4-0.3,1-0.6,1.6-0.9c0.6-0.2,1.3-0.3,2.1-0.3
		c1.1,0,2.2,0.1,3.1,0.4c0.8,0.3,1.5,0.7,2.2,1.3c0.7,0.7,1.4,1.7,2,2.9c0.7,1.4,1.3,3.1,1.8,5.2l0.5,1.9h6.1V22.3h-5.7l-0.7,1.4
		c-0.1,0.1-0.1,0.2-0.2,0.3c-0.2,0-0.4-0.1-0.7-0.2c-0.8-0.2-1.6-0.4-2.6-0.6c-1-0.2-2-0.5-2.9-0.6c-1.1-0.2-2-0.3-2.8-0.3
		c-2.2,0-4.3,0.4-6.1,1.1c-1.9,0.7-3.5,1.8-4.9,3.1c-1.4,1.3-2.5,2.9-3.2,4.8c-0.7,1.8-1.1,3.8-1.1,5.8c0,1.5,0.2,3,0.5,4.2
		c0.4,1.4,1.1,2.8,2.1,4c1,1.1,2.2,2.3,3.8,3.4c1.5,1,3.5,2.1,5.8,3.3c2.2,1.1,4.1,2.1,5.5,3c1.3,0.8,2.3,1.5,3,2.2
		c0.6,0.5,0.9,1.1,1.1,1.6c0.2,0.6,0.3,1.2,0.3,2c0,0.5-0.1,1-0.3,1.4c-0.2,0.5-0.5,0.9-0.9,1.2c-0.4,0.4-0.9,0.7-1.5,0.9
		c-0.6,0.2-1.3,0.3-2,0.3c-1.2,0-2.3-0.2-3.4-0.7c-1.1-0.4-2.1-1.1-3.1-2c-1-0.9-1.8-2.1-2.6-3.4c-0.8-1.4-1.3-3.1-1.7-5l-0.4-2
		h-6.1v20.2h5.5l0.6-1.1c0,0,0.1,0,0.1,0c0.4,0.1,0.8,0.2,1.2,0.3c1.8,0.5,3.5,0.9,5.1,1.2c1.6,0.2,3.1,0.3,4.6,0.3
		c2,0,4.1-0.4,6.1-1.1c2-0.7,3.8-1.7,5.3-3c1.6-1.3,2.9-3,3.9-4.9c1-1.9,1.5-4.1,1.5-6.4C231.2,50.9,227.6,46.1,220.4,42.6z"/>
	<path class="st0" d="M274,51.1l-5.3-2.8l-1.1,2.4c-0.9,2-1.8,3.7-2.7,5c-0.8,1.2-1.7,2.1-2.6,2.8c-0.8,0.6-1.7,1.1-2.6,1.3
		c-1,0.3-2,0.4-3,0.4c-1.7,0-3.2-0.4-4.5-1.2c-1.4-0.9-2.6-2.1-3.6-3.6c-1-1.6-1.9-3.4-2.4-5.4c-0.6-2.1-0.8-4.3-0.8-6.5
		c0-1.9,0.2-3.6,0.6-5.3c0.4-1.6,1-3,1.8-4.2c0.7-1.1,1.6-2,2.7-2.6c1-0.6,2.2-0.9,3.6-0.9c2.5,0,3.6,0.9,3.8,3.3
		c0.2,3,1.1,5.1,2.6,6.2c1.4,1.1,3.1,1.6,5.1,1.6c2,0,3.7-0.6,4.9-1.8c1.3-1.2,1.9-2.8,1.9-4.7c0-1.6-0.5-3.2-1.4-4.8
		c-0.9-1.5-2.1-2.9-3.7-4c-1.5-1.1-3.2-2.1-5.2-2.8c-2-0.7-4.2-1.1-6.6-1.1c-3.1,0-6.1,0.6-8.9,1.9c-2.7,1.2-5.2,3-7.2,5.2
		c-2.1,2.2-3.7,4.9-4.9,7.9c-1.2,3.1-1.8,6.4-1.8,10.1c0,3.7,0.6,7.2,1.6,10.2c1.1,3,2.6,5.7,4.4,7.9c1.9,2.2,4.1,3.9,6.6,5.1
		c2.5,1.2,5.2,1.8,7.9,1.8c2.3,0,4.6-0.4,6.8-1.3c2.2-0.9,4.2-2.2,6-3.8c1.8-1.7,3.4-3.7,4.7-6.1c1.3-2.4,2.3-5.1,2.9-8.2L274,51.1z
		"/>
	<path class="st0" d="M313.2,62.6c-0.1,0.8-0.3,1.1-0.4,1.2c0,0.1-0.2,0.2-0.6,0.3c-0.5,0.1-1.3,0.2-2.8,0.2H307v6.7h25.7v-6.7h-2.5
		c-1.1,0-2,0-2.7-0.1c-0.4,0-0.5-0.1-0.5-0.2c0,0-0.2-0.2-0.4-1c-0.1-0.6-0.3-1.9-0.3-4.2V22.3h-5.1l-12.5,5.1
		c-0.1-0.1-0.1-0.3-0.2-0.4c-0.4-0.9-1-1.7-1.8-2.4c-0.8-0.7-1.7-1.2-2.7-1.6c-1-0.4-2.1-0.6-3.2-0.6c-3,0-5.8,1.4-8.5,4.3v-4.3
		h-4.9L272,28.5l1.6,6.4l2.6-0.9c0.6-0.2,1-0.3,1.4-0.4c0.3-0.1,0.7-0.1,1-0.1c0.3,0,0.5,0,0.7,0.8c0,0.3,0.1,0.9,0.2,2.5
		c0.1,1.4,0.1,3.3,0.1,5.8V59c0,1.6-0.1,2.8-0.2,3.7c-0.1,0.8-0.4,1.1-0.4,1.1c-0.1,0.1-0.2,0.2-0.7,0.4c-0.7,0.1-1.6,0.2-2.8,0.2
		h-2.5v6.7h26.8v-6.7h-2.5c-1.7,0-2.6-0.2-3.1-0.4c-0.5-0.2-0.9-0.5-1.1-0.8c-0.3-0.4-0.5-0.9-0.6-1.5c-0.1-0.9-0.2-1.9-0.2-3V38.8
		c0.9-1.7,1.8-3.1,2.7-4.1c0.4-0.5,0.7-0.8,0.9-1c0.5,0.3,1,0.6,1.6,1c0.7,0.5,1.5,0.9,2.2,1.3c1,0.5,2,0.7,2.9,0.7
		c1.8,0,3.4-0.7,4.7-2c0.2-0.2,0.4-0.4,0.6-0.7l0.3,0.7l2.2-0.8c0.6-0.2,1-0.3,1.4-0.4c0.4-0.1,0.9-0.1,1.2-0.1
		c0.1,0.3,0.3,1.1,0.4,2.9c0.1,1.5,0.1,3.6,0.1,6.2v16.4C313.4,60.4,313.3,61.7,313.2,62.6z"/>
	<path class="st0" d="M319.8,14.4c2,0,3.8-0.7,5.2-2.1c1.4-1.4,2.1-3.1,2.1-5.1c0-2-0.7-3.8-2.1-5.1c-1.4-1.4-3.1-2.1-5.1-2.1
		s-3.8,0.7-5.1,2.1c-1.4,1.4-2.1,3.1-2.1,5.1c0,1.9,0.7,3.7,2.1,5.1C316,13.7,317.8,14.4,319.8,14.4z"/>
	<path class="st0" d="M374.4,29.5c-1.6-2.2-3.6-4-5.8-5.3c-2.3-1.3-5-2-7.8-2c-3,0-5.8,0.9-8.4,2.7c-0.9,0.6-1.8,1.4-2.7,2.3v-4.8
		H345l-15.8,6.4l2.3,6.3l2.4-1c0.4-0.2,0.8-0.3,1.2-0.4c0.4-0.1,0.6-0.1,0.7-0.1c0.4,0,0.6,0,0.8,0.1c0.1,0.2,0.2,0.6,0.3,1.3
		c0.1,0.9,0.2,2.1,0.2,3.6v40.2c0,2.3-0.2,3.6-0.3,4.2c-0.2,1-0.5,1.4-0.6,1.4c-0.1,0.1-0.2,0.1-0.4,0.2c-0.7,0.1-1.5,0.1-2.4,0.1
		h-3.7v6.7h27.3v-6.7h-2.5c-2.8,0-3.6-0.4-3.6-0.4c-0.2-0.1-0.5-0.3-0.6-0.4c0,0,0,0,0-0.1c-0.1-0.2-0.2-0.6-0.3-1.5
		c-0.1-0.8-0.1-1.9-0.1-3.3v-8.1c0.5,0.2,1,0.5,1.5,0.6c1,0.3,2,0.6,3,0.7c0.9,0.1,2,0.2,3.1,0.2c3.4,0,6.5-0.8,9.2-2.2
		c2.7-1.5,5-3.5,6.9-6c1.9-2.4,3.3-5.3,4.3-8.5c1-3.1,1.5-6.5,1.5-10c0-3.1-0.4-6.1-1.2-8.8C377.1,34.1,375.9,31.6,374.4,29.5z
		 M360.7,63.7c-1,0.6-2.2,0.9-3.5,0.9c-1,0-1.9-0.1-2.7-0.4c-0.8-0.3-1.6-0.7-2.2-1.1c-0.6-0.5-1.1-1-1.5-1.6
		c-0.4-0.5-0.6-1.1-0.7-1.7l0-0.1c-0.1-0.5-0.3-2-0.3-6.2V38.6c1.1-1.1,2-2,2.7-2.7c1-0.9,1.6-1.3,2-1.5c0.5-0.3,0.9-0.4,1.1-0.4
		c0.5-0.1,1.1-0.1,1.7-0.1c1.2,0,2.3,0.3,3.3,1c1.1,0.7,2.1,1.8,2.9,3.1c0.9,1.4,1.5,3.2,2,5.2c0.5,2.1,0.7,4.4,0.7,6.8
		c0,2.3-0.2,4.3-0.7,6.2c-0.4,1.8-1,3.3-1.8,4.6C362.7,62.1,361.8,63,360.7,63.7z"/>
	<path class="st0" d="M403,57.6l-0.6,1.6c-0.3,0.8-0.7,1.3-1.2,1.7c-0.5,0.4-1.1,0.5-1.6,0.5c-0.3,0-0.5,0-0.7-0.1
		c-0.1,0-0.2-0.1-0.3-0.3c-0.1-0.1-0.3-0.4-0.4-1.2c-0.2-0.7-0.3-1.7-0.3-2.9V31.8h9.9v-8.3h-9.9V9.6h-5.6l-0.6,1.6
		c-1.7,4.2-3.5,7.5-5.4,9.7c-1.8,2.1-3.9,3.7-6.1,4.5l-1.6,0.6v5.7h6.8v26.1c0,4.8,0.9,8.2,2.8,10.4c2,2.3,4.6,3.4,7.8,3.4
		c2.7,0,5.3-0.9,7.7-2.8c2.4-1.8,4.2-4.5,5.4-8l1.2-3.3H403z"/>
</g>
</svg>
