<?xml version="1.0" encoding="utf-8"?>
<!-- Generator: Adobe Illustrator 24.0.0, SVG Export Plug-In . SVG Version: 6.00 Build 0)  -->
<svg version="1.1" id="Layer_1" xmlns="http://www.w3.org/2000/svg" xmlns:xlink="http://www.w3.org/1999/xlink" x="0px" y="0px"
	 viewBox="0 0 800 201.2" style="enable-background:new 0 0 800 201.2;" xml:space="preserve">
<style type="text/css">
	.st0{fill:#4353FF;}
</style>
<g>
	<path class="st0" d="M258.3,78.7c0-14.4-14-29.6-38.1-29.6c-27.1,0-56.9,19.9-61.5,59.6c-4.7,40.1,20.3,57.9,45.4,57.9
		c25.1,0,38.3-9.8,51.8-22.9c-11.6-14.5-26.5-7.8-29.4-6.3c-3.2,1.6-7.2,3.8-15.5,3.8c-9.7,0-19.6-4.4-19.6-22.5
		C253.6,112.5,258.3,93,258.3,78.7z M227.5,81.1c-0.4,4.5-2.2,12.1-33.7,16.3c6.6-23.6,19.3-25.3,25.1-25.3
		C224.5,72.1,227.9,76.3,227.5,81.1z M122.2,84.9c0,0-13.4,42-14.5,45.4c-0.4-3.6-10.2-78.9-10.2-78.9c-22.8,0-34.9,16.2-41.4,33.4
		c0,0-16.2,42.1-17.6,45.6c-0.1-3.3-2.5-45.1-2.5-45.1C34.7,64.3,15.5,51.6,0,51.6l18.8,114.1c23.9-0.1,36.7-16.2,43.4-33.4
		c0,0,14.4-37.1,14.9-38.8c0.1,1.6,10.3,72.2,10.3,72.2c24,0,36.8-15.1,43.7-31.7l33.6-82.4C141.1,51.6,128.7,67.7,122.2,84.9z
		 M346.2,48.9c-14.7,0-26,8-35.5,19.8v-0.1L319.2,0c-19.6,0-35.5,17-38.6,42.4l-14.8,122.4c11.3,0,23.3-3.3,29.7-11.6
		c5.7,7.4,14.4,13.4,27.1,13.4c33.1,0,55.7-38.4,55.7-74.4C378.1,59.3,362.1,48.9,346.2,48.9z M343.1,107.8
		c-3.5,20.1-14.6,33.7-25.4,33.7c-10.9,0-15.5-4.8-15.5-4.8c2.1-17.6,3.4-28.4,7.3-37.7c4-9.3,13.4-24.1,23.2-24.1
		C342.2,74.8,346.6,87.6,343.1,107.8z M460.8,51.6h-23.1l0.1-1.2c1.6-15,5.1-23,16.9-24.2c8-0.8,11.6-4.9,12.5-9.5
		c0.7-3.6,2.9-15.9,2.9-15.9c-46.3-0.3-60.9,19.7-64.6,50.2l-0.1,0.7h-0.5c-7.5,0-15.8,8.5-17.2,19.3l-0.5,4h15.4l-13,107.1l-4,19.2
		c0.5,0,1.1,0.1,1.6,0.1c21.7-0.8,35.5-17.9,38.6-42.8L436,74.8h7.2c7.1,0,15.4-7.1,16.9-19L460.8,51.6z M580.8,49.6
		c-26.6,0-51.8,19.6-59.5,50.4c-7.7,30.8,4,67.2,43.2,67.2c39.1,0,61.7-37.9,61.7-69.5C626.1,66.3,604.8,49.6,580.8,49.6z
		 M591.6,106.8c-1.4,14-7.5,35.1-24.3,35.1c-16.9,0-14.5-24.7-12.9-36.5c1.8-12.6,8.8-30.5,24-30.5
		C591.9,74.9,593.1,91.1,591.6,106.8z M757.6,84.9c0,0-13.4,42-14.5,45.4c-0.4-3.6-10.2-78.9-10.2-78.9c-22.8,0-34.9,16.2-41.4,33.4
		c0,0-16.2,42.1-17.6,45.6c-0.1-3.3-2.5-45.1-2.5-45.1c-1.4-21-20.6-33.7-36.1-33.7l18.7,114.1c23.9-0.1,36.7-16.2,43.4-33.4
		c0,0,14.4-37.1,14.8-38.8c0.1,1.6,10.3,72.2,10.3,72.2c24,0,36.8-15.1,43.7-31.7L800,51.6C776.4,51.6,764,67.7,757.6,84.9z
		 M482.6,0.7l-19.4,156.5l0,0l-4,19.3c0.5,0,1.1,0.1,1.6,0.1l0,0c20.9-0.3,35.7-18.6,38.5-41.7l11.2-89.8
		C513.9,17.7,497.5,0.7,482.6,0.7z"/>
</g>
</svg>
