<?xml version="1.0" encoding="utf-8"?>
<!-- Generator: Adobe Illustrator 24.0.0, SVG Export Plug-In . SVG Version: 6.00 Build 0)  -->
<svg version="1.1" id="Layer_1" xmlns="http://www.w3.org/2000/svg" xmlns:xlink="http://www.w3.org/1999/xlink" x="0px" y="0px"
	 viewBox="0 0 513.5 66.6" style="enable-background:new 0 0 513.5 66.6;" xml:space="preserve">
<style type="text/css">
	.st0{fill:#FFFFFF;}
</style>
<g>
	<path class="st0" d="M231.2,14.8h-26.5v2.8c8.3,0,9.6,1.8,9.6,12.3v18.9c0,10.5-1.3,12.4-9.6,12.4c-6.4-0.9-10.7-4.3-16.6-10.8
		l-6.8-7.4c9.2-1.6,14-7.4,14-13.9c0-8.2-7-14.4-19.9-14.4h-26.1v2.8c8.3,0,9.6,1.8,9.6,12.3v18.9c0,10.5-1.3,12.4-9.6,12.4V64h29.4
		v-2.8c-8.3,0-9.6-1.9-9.6-12.4v-5.3h2.5L188.2,64h43c21.2,0,30.3-11.3,30.3-24.7C261.4,25.9,252.3,14.8,231.2,14.8L231.2,14.8
		L231.2,14.8z M169.2,38.9V19.2h6.1c6.6,0,9.6,4.6,9.6,9.9c0,5.2-2.9,9.7-9.6,9.7H169.2L169.2,38.9L169.2,38.9z M231.6,59.5h-1
		c-5.3,0-6.1-1.3-6.1-8.2V19.2h7.1c15.4,0,18.2,11.3,18.2,19.9C249.8,48.2,247,59.5,231.6,59.5L231.6,59.5L231.6,59.5z M67.1,44.4
		l10.2-30.2c2.9-8.7,1.6-11.3-7.8-11.3V0h27.8v2.9c-9.3,0-11.5,2.2-15.2,13L65.1,66.6h-1.9l-15-46.3L32.8,66.6h-1.9L14.5,16
		C10.9,5.2,8.6,2.9,0,2.9V0h32.9v2.9c-8.7,0-11.1,2.1-8,11.3l9.9,30.2L49.7,0h2.8L67.1,44.4L67.1,44.4z M117.3,66
		C101,66,87.7,54,87.7,39.3c0-14.5,13.3-26.5,29.6-26.5c16.3,0,29.6,12,29.6,26.5C146.9,54,133.6,66,117.3,66L117.3,66L117.3,66z
		 M117.3,17.5C103.7,17.5,99,29.7,99,39.3c0,9.7,4.7,21.8,18.3,21.8c13.8,0,18.5-12.1,18.5-21.8C135.8,29.7,131.1,17.5,117.3,17.5
		L117.3,17.5L117.3,17.5z"/>
	<path class="st0" d="M298,61.1V64h-33.9v-2.9c9.9,0,11.7-2.5,11.7-17.3V20.2C275.8,5.4,274,3,264.1,3V0.1h30.6
		c15.2,0,23.7,7.8,23.7,18.3c0,10.2-8.4,18.2-23.7,18.2h-8.4v7.2C286.3,58.6,288.1,61.1,298,61.1L298,61.1L298,61.1z M294.7,5.4
		h-8.4v25.7h8.4c8.3,0,12.1-5.8,12.1-12.7C306.9,11.3,303,5.4,294.7,5.4L294.7,5.4L294.7,5.4z M419.9,50.2l-0.8,2.7
		c-1.3,4.9-2.9,6.6-13.4,6.6h-2.1c-7.6,0-9-1.8-9-12.3v-6.8c11.5,0,12.4,1,12.4,8.7h2.8v-22h-2.8c0,7.6-0.9,8.7-12.4,8.7V19.3h8.2
		c10.5,0,12.1,1.8,13.4,6.6l0.8,2.8h2.4l-1-13.9h-43.4v2.8c8.3,0,9.6,1.8,9.6,12.3v18.9c0,9.6-1.1,12-7.6,12.4
		c-6.2-0.9-10.5-4.4-16.3-10.8l-6.8-7.4c9.2-1.6,14-7.4,14-13.9c0-8.2-7-14.4-19.9-14.4h-26.1v2.8c8.3,0,9.6,1.8,9.6,12.3v18.9
		c0,10.5-1.3,12.4-9.6,12.4V64h29.4v-2.8c-8.3,0-9.6-1.9-9.6-12.4v-5.3h2.5L360.5,64h60.8l0.9-13.9L419.9,50.2L419.9,50.2
		L419.9,50.2z M341.6,38.9V19.2h6.1c6.6,0,9.6,4.6,9.6,9.9c0,5.2-2.9,9.7-9.6,9.7H341.6L341.6,38.9L341.6,38.9z M450,66
		c-5.9,0-11.1-3.1-13.3-5c-0.8,0.8-2.1,2.9-2.4,5h-2.8V45.5h2.9c1.2,9.7,8,15.5,16.7,15.5c4.7,0,8.6-2.7,8.6-7.1
		c0-3.9-3.4-6.8-9.5-9.6l-8.4-3.9c-5.9-2.8-10.3-7.7-10.3-14.2c0-7.1,6.6-13.2,15.8-13.2c4.9,0,9,1.8,11.5,3.9
		c0.8-0.6,1.5-2.2,1.9-4h2.8v17.5h-3.1c-1-7-4.9-12.7-12.7-12.7c-4.1,0-8,2.4-8,6.1c0,3.9,3.1,5.9,10.2,9.2l8.2,3.9
		c7.1,3.4,9.9,8.9,9.9,13.3C468,59.5,459.8,66,450,66L450,66L450,66z M495.5,66c-5.9,0-11.1-3.1-13.3-5c-0.8,0.8-2.1,2.9-2.4,5h-2.8
		V45.5h2.9c1.2,9.7,8,15.5,16.7,15.5c4.7,0,8.6-2.7,8.6-7.1c0-3.9-3.4-6.8-9.5-9.6l-8.4-3.9c-5.9-2.8-10.3-7.7-10.3-14.2
		c0-7.1,6.6-13.2,15.8-13.2c4.9,0,9,1.8,11.5,3.9c0.8-0.6,1.5-2.2,1.9-4h2.8v17.5H506c-1-7-4.9-12.7-12.7-12.7c-4.1,0-8,2.4-8,6.1
		c0,3.9,3.1,5.9,10.2,9.2l8.2,3.9c7.1,3.4,9.9,8.9,9.9,13.3C513.5,59.5,505.4,66,495.5,66L495.5,66L495.5,66z"/>
</g>
</svg>
